<svg width="25" height="28" viewBox="0 0 25 28" fill="none" xmlns="http://www.w3.org/2000/svg">
<path d="M24.9565 8.2106C24.9563 7.74102 24.8554 7.32607 24.6514 6.97005C24.4511 6.61975 24.151 6.32624 23.7485 6.09417C20.4262 4.18677 17.1006 2.2852 13.7794 0.375851C12.884 -0.138844 12.0158 -0.119983 11.127 0.402101C9.80465 1.17852 3.1839 4.95531 1.211 6.0931C0.398504 6.56152 0.00314313 7.27824 0.00294784 8.20973C0.00167847 12.0456 0.00294784 15.8815 0.00167847 19.7174C0.00167847 20.1767 0.0984437 20.5837 0.293439 20.9344C0.493902 21.2952 0.798161 21.5967 1.20993 21.8341C3.18292 22.9719 9.80455 26.7483 11.1267 27.5251C12.0158 28.0474 12.884 28.0661 13.7796 27.5513C17.101 25.6419 20.4268 23.7403 23.7496 21.8329C24.1614 21.5957 24.4656 21.2939 24.6661 20.9334C24.8608 20.5826 24.9577 20.1757 24.9577 19.7164C24.9577 19.7164 24.9577 12.0466 24.9565 8.2106Z" fill="#A179DC"/>
<path d="M12.5178 13.9262L0.293335 20.9344C0.493798 21.2952 0.798057 21.5967 1.20982 21.8341C3.18282 22.9719 9.80445 26.7484 11.1266 27.5251C12.0157 28.0474 12.8839 28.0661 13.7795 27.5513C17.1009 25.6419 20.4267 23.7403 23.7495 21.8329C24.1613 21.5957 24.4655 21.2939 24.666 20.9334L12.5178 13.9262" fill="#280068"/>
<path d="M24.9563 8.21059C24.9561 7.741 24.8553 7.32606 24.6513 6.97003L12.5178 13.9263L24.666 20.9334C24.8607 20.5826 24.9574 20.1757 24.9576 19.7164C24.9576 19.7164 24.9576 12.0466 24.9563 8.21059" fill="#390091"/>
<path d="M19.7151 11.3063V12.6163H21.0308V11.3063H21.6886V12.6163H23.0043V13.2713H21.6886V14.5812H23.0043V15.2362H21.6886V16.5461H21.0308V15.2362H19.7151V16.5461H19.0573V15.2362H17.7417V14.5812H19.0573V13.2713H17.7417V12.6163H19.0573V11.3063H19.7151ZM21.0308 13.2712H19.7151V14.5812H21.0308V13.2713V13.2712Z" fill="white"/>
<path d="M12.5446 4.72751C15.9762 4.72751 18.9722 6.5831 20.577 9.34129L20.5614 9.31475L16.5238 11.6294C15.7284 10.2884 14.2702 9.38339 12.5973 9.36472L12.5445 9.36443C9.99357 9.36443 7.92547 11.4236 7.92547 13.9635C7.92464 14.7641 8.13469 15.5509 8.53468 16.2453C9.33086 17.6293 10.8277 18.5627 12.5446 18.5627C14.2722 18.5627 15.7775 17.6174 16.5696 16.2187L16.5504 16.2522L20.5818 18.5776C18.9946 21.3125 16.0396 23.1623 12.6479 23.1992L12.5446 23.1997C9.10218 23.1997 6.09767 21.3327 4.4969 18.5599C3.71545 17.2063 3.26834 15.637 3.26834 13.9635C3.26834 8.86267 7.42134 4.72742 12.5445 4.72742L12.5446 4.72751Z" fill="white"/>
</svg>
