<svg width="25" height="28" viewBox="0 0 25 28" fill="none" xmlns="http://www.w3.org/2000/svg">
<path d="M24.9565 8.23665C24.9563 7.76706 24.8554 7.35212 24.6514 6.996C24.451 6.6458 24.151 6.35229 23.7485 6.12022C20.4262 4.21282 17.1006 2.31125 13.7793 0.401899C12.8839 -0.112796 12.0158 -0.0940319 11.127 0.428051C9.80464 1.20457 3.18388 4.98136 1.21098 6.11915C0.398489 6.58747 0.00312787 7.30419 0.00293258 8.23577C0.00166321 12.0717 0.00293258 15.9075 0.00166321 19.7435C0.0018585 20.2028 0.0984285 20.6096 0.293424 20.9604C0.493887 21.3212 0.798146 21.6228 1.20991 21.8601C3.18291 22.9979 9.80454 26.7744 11.1266 27.5511C12.0158 28.0735 12.8839 28.0921 13.7796 27.5773C17.101 25.6678 20.4267 23.7663 23.7496 21.8589C24.1613 21.6217 24.4656 21.3199 24.6661 20.9594C24.8608 20.6087 24.9575 20.2018 24.9577 19.7424C24.9577 19.7424 24.9577 12.0726 24.9565 8.23665" fill="#5C8DBC"/>
<path d="M12.5178 13.9523L0.29332 20.9604C0.493783 21.3212 0.798042 21.6228 1.20981 21.8601C3.1828 22.9979 9.80444 26.7744 11.1265 27.5511C12.0157 28.0735 12.8838 28.0922 13.7795 27.5773C17.1009 25.6678 20.4266 23.7664 23.7495 21.859C24.1612 21.6217 24.4655 21.32 24.666 20.9595L12.5178 13.9523" fill="#1A4674"/>
<path d="M8.89703 16.0282C9.60837 17.2646 10.9456 18.0986 12.4796 18.0986C14.0231 18.0986 15.3679 17.254 16.0756 16.0043L12.5178 13.9523L8.89703 16.0282" fill="#1A4674"/>
<path d="M24.9564 8.23669C24.9562 7.7671 24.8553 7.35216 24.6513 6.99603L12.5178 13.9523L24.666 20.9595C24.8607 20.6087 24.9574 20.2018 24.9576 19.7425C24.9576 19.7425 24.9576 12.0727 24.9564 8.23669" fill="#1B598E"/>
<path d="M24.2884 14.4532H23.3391V15.3985H22.3896V14.4532H21.4404V13.5081H22.3896V12.5629H23.3391V13.5081H24.2884V14.4532Z" fill="white"/>
<path d="M20.8244 14.4532H19.8752V15.3985H18.9259V14.4532H17.9767V13.5081H18.9259V12.5629H19.8752V13.5081H20.8244V14.4532Z" fill="white"/>
<path d="M16.0756 16.0044C15.3679 17.254 14.023 18.0986 12.4796 18.0986C10.9456 18.0986 9.60836 17.2646 8.89703 16.0282C8.53968 15.4077 8.35202 14.7048 8.35276 13.9896C8.35276 11.7204 10.2005 9.88071 12.4796 9.88071C14.0037 9.88071 15.3339 10.7043 16.0488 11.9281L19.6558 9.86C18.2221 7.39581 15.5454 5.73798 12.4796 5.73798C7.90242 5.73798 4.19205 9.43242 4.19205 13.9896C4.19205 15.4847 4.59151 16.8867 5.28966 18.0961C6.71976 20.5733 9.40409 22.2414 12.4796 22.2414C15.5607 22.2414 18.2493 20.5666 19.6773 18.0821L16.0756 16.0044Z" fill="white"/>
</svg>
