<svg width="193" height="32" viewBox="0 0 193 32" fill="none" xmlns="http://www.w3.org/2000/svg">
<path d="M7.11978 21.736L13.6375 27.7063L19.6078 21.1886" stroke="black" stroke-width="2.5" stroke-linecap="round" stroke-linejoin="round"/>
<path d="M13.6375 27.7063L13.1996 17.7159C12.8973 10.8188 18.2431 4.98283 25.1402 4.68052L26.389 4.62579" stroke="black" stroke-width="2.5" stroke-linecap="round" stroke-linejoin="round"/>
<path d="M45.1357 9.93262H43.9531V14H41.9023V4.04688H43.9531V8.03223H44.8896L47.3232 4.04688H49.8252L46.7559 8.75684L50.1465 14H47.6992L45.1357 9.93262ZM50.3105 10.2334C50.3105 9.49967 50.4518 8.8457 50.7344 8.27148C51.0169 7.69727 51.4225 7.25293 51.9512 6.93848C52.4844 6.62402 53.1019 6.4668 53.8037 6.4668C54.8018 6.4668 55.6152 6.77214 56.2441 7.38281C56.8776 7.99349 57.2308 8.82292 57.3037 9.87109L57.3174 10.377C57.3174 11.5117 57.0007 12.4232 56.3672 13.1113C55.7337 13.7949 54.8838 14.1367 53.8174 14.1367C52.751 14.1367 51.8988 13.7949 51.2607 13.1113C50.6273 12.4277 50.3105 11.498 50.3105 10.3223V10.2334ZM52.2861 10.377C52.2861 11.0788 52.4183 11.6165 52.6826 11.9902C52.9469 12.3594 53.3252 12.5439 53.8174 12.5439C54.2959 12.5439 54.6696 12.3617 54.9385 11.9971C55.2074 11.6279 55.3418 11.04 55.3418 10.2334C55.3418 9.54525 55.2074 9.01204 54.9385 8.63379C54.6696 8.25553 54.2913 8.06641 53.8037 8.06641C53.3206 8.06641 52.9469 8.25553 52.6826 8.63379C52.4183 9.00749 52.2861 9.58854 52.2861 10.377ZM58.1445 12.4072C58.5911 11.9333 58.8942 11.4639 59.0537 10.999C59.2132 10.5342 59.3021 9.87565 59.3203 9.02344L59.375 6.60352H64.8164V12.4072H65.8828V16.2217H63.9072V14H59.5254V16.2217H57.5088V12.4072H58.1445ZM60.4756 12.4072H62.8477V8.2373H61.3096L61.2959 9.12598C61.2549 10.484 60.9814 11.5778 60.4756 12.4072ZM73.2725 11.2725H72.4795V14H70.5039V6.60352H72.4795V9.38574H73.1836L74.7969 6.60352H77.292L74.8721 10.124L77.5176 14H74.8857L73.2725 11.2725ZM82.5488 14C82.4577 13.8223 82.3916 13.6012 82.3506 13.3369C81.8721 13.8701 81.25 14.1367 80.4844 14.1367C79.7598 14.1367 79.1582 13.9271 78.6797 13.5078C78.2057 13.0885 77.9688 12.5599 77.9688 11.9219C77.9688 11.138 78.2581 10.5365 78.8369 10.1172C79.4202 9.69792 80.2611 9.486 81.3594 9.48145H82.2686V9.05762C82.2686 8.71582 82.1797 8.44238 82.002 8.2373C81.8288 8.03223 81.5531 7.92969 81.1748 7.92969C80.8421 7.92969 80.5801 8.00944 80.3887 8.16895C80.2018 8.32845 80.1084 8.5472 80.1084 8.8252H78.1328C78.1328 8.39681 78.265 8.00033 78.5293 7.63574C78.7936 7.27116 79.1673 6.98633 79.6504 6.78125C80.1335 6.57161 80.6758 6.4668 81.2773 6.4668C82.1888 6.4668 82.9111 6.69694 83.4443 7.15723C83.9821 7.61296 84.251 8.25553 84.251 9.08496V12.291C84.2555 12.9928 84.3535 13.5238 84.5449 13.8838V14H82.5488ZM80.915 12.626C81.2067 12.626 81.4756 12.5622 81.7217 12.4346C81.9678 12.3024 82.1501 12.127 82.2686 11.9082V10.6367H81.5303C80.5413 10.6367 80.015 10.9785 79.9512 11.6621L79.9443 11.7783C79.9443 12.0244 80.0309 12.2272 80.2041 12.3867C80.3773 12.5462 80.6143 12.626 80.915 12.626ZM92.2012 6.60352V14H90.2256V8.20312H88.4824L88.3594 10.4863C88.2819 11.7031 88.0426 12.5895 87.6416 13.1455C87.2406 13.7015 86.6436 13.9863 85.8506 14H85.1807L85.1602 12.3936L85.4062 12.373C85.7617 12.3457 86.0215 12.1361 86.1855 11.7441C86.3496 11.3522 86.4521 10.6846 86.4932 9.74121L86.6299 6.60352H92.2012ZM95.8379 8.77051H97.2529C97.891 8.77051 98.4515 8.8776 98.9346 9.0918C99.4176 9.30599 99.7868 9.61361 100.042 10.0146C100.302 10.4111 100.432 10.8737 100.432 11.4023C100.432 12.1816 100.142 12.8105 99.5635 13.2891C98.9893 13.763 98.2054 14 97.2119 14H93.8555V6.60352H95.8379V8.77051ZM95.8379 10.3564V12.4209H97.2393C97.6312 12.4209 97.932 12.3298 98.1416 12.1475C98.3512 11.9652 98.4561 11.7168 98.4561 11.4023C98.4561 11.0833 98.3535 10.8304 98.1484 10.6436C97.9434 10.4521 97.6403 10.3564 97.2393 10.3564H95.8379ZM104.444 11.2725H103.651V14H101.676V6.60352H103.651V9.38574H104.355L105.969 6.60352H108.464L106.044 10.124L108.689 14H106.058L104.444 11.2725ZM112.196 11.2041L113.563 6.60352H115.683L112.709 15.1484L112.545 15.5381C112.103 16.5042 111.374 16.9873 110.357 16.9873C110.07 16.9873 109.779 16.944 109.482 16.8574V15.3604L109.783 15.3672C110.157 15.3672 110.435 15.3102 110.617 15.1963C110.804 15.0824 110.95 14.8932 111.055 14.6289L111.287 14.0205L108.696 6.60352H110.822L112.196 11.2041ZM122.607 6.60352V14H120.632V8.20312H118.889L118.766 10.4863C118.688 11.7031 118.449 12.5895 118.048 13.1455C117.647 13.7015 117.05 13.9863 116.257 14H115.587L115.566 12.3936L115.812 12.373C116.168 12.3457 116.428 12.1361 116.592 11.7441C116.756 11.3522 116.858 10.6846 116.899 9.74121L117.036 6.60352H122.607ZM130.298 6.60352V14H128.329V11.4434H127.078L125.656 14H123.653L125.267 11.1084C124.825 10.9033 124.483 10.6253 124.241 10.2744C124.004 9.9235 123.886 9.52474 123.886 9.07812C123.886 8.36263 124.161 7.77702 124.713 7.32129C125.269 6.861 126.012 6.62174 126.941 6.60352H130.298ZM126.976 10.0625H128.329V8.18945H127.044C126.693 8.18945 126.408 8.28288 126.189 8.46973C125.971 8.65202 125.861 8.87533 125.861 9.13965C125.861 9.40397 125.966 9.62272 126.176 9.7959C126.385 9.96908 126.652 10.0579 126.976 10.0625ZM138.104 8.18945H135.732V14H133.75V8.18945H131.419V6.60352H138.104V8.18945ZM138.59 10.2334C138.59 9.49967 138.731 8.8457 139.014 8.27148C139.296 7.69727 139.702 7.25293 140.23 6.93848C140.764 6.62402 141.381 6.4668 142.083 6.4668C143.081 6.4668 143.895 6.77214 144.523 7.38281C145.157 7.99349 145.51 8.82292 145.583 9.87109L145.597 10.377C145.597 11.5117 145.28 12.4232 144.646 13.1113C144.013 13.7949 143.163 14.1367 142.097 14.1367C141.03 14.1367 140.178 13.7949 139.54 13.1113C138.907 12.4277 138.59 11.498 138.59 10.3223V10.2334ZM140.565 10.377C140.565 11.0788 140.698 11.6165 140.962 11.9902C141.226 12.3594 141.604 12.5439 142.097 12.5439C142.575 12.5439 142.949 12.3617 143.218 11.9971C143.487 11.6279 143.621 11.04 143.621 10.2334C143.621 9.54525 143.487 9.01204 143.218 8.63379C142.949 8.25553 142.571 8.06641 142.083 8.06641C141.6 8.06641 141.226 8.25553 140.962 8.63379C140.698 9.00749 140.565 9.58854 140.565 10.377ZM153.472 10.3701C153.472 11.5094 153.212 12.4232 152.692 13.1113C152.177 13.7949 151.48 14.1367 150.601 14.1367C149.853 14.1367 149.249 13.877 148.789 13.3574V16.8438H146.813V6.60352H148.646L148.714 7.32812C149.192 6.75391 149.817 6.4668 150.587 6.4668C151.498 6.4668 152.207 6.80404 152.713 7.47852C153.219 8.15299 153.472 9.08268 153.472 10.2676V10.3701ZM151.496 10.2266C151.496 9.53841 151.373 9.00749 151.127 8.63379C150.885 8.26009 150.532 8.07324 150.067 8.07324C149.448 8.07324 149.021 8.31022 148.789 8.78418V11.8125C149.031 12.3001 149.461 12.5439 150.081 12.5439C151.024 12.5439 151.496 11.7715 151.496 10.2266ZM158.988 14C158.897 13.8223 158.831 13.6012 158.79 13.3369C158.312 13.8701 157.689 14.1367 156.924 14.1367C156.199 14.1367 155.598 13.9271 155.119 13.5078C154.645 13.0885 154.408 12.5599 154.408 11.9219C154.408 11.138 154.698 10.5365 155.276 10.1172C155.86 9.69792 156.701 9.486 157.799 9.48145H158.708V9.05762C158.708 8.71582 158.619 8.44238 158.441 8.2373C158.268 8.03223 157.993 7.92969 157.614 7.92969C157.282 7.92969 157.02 8.00944 156.828 8.16895C156.641 8.32845 156.548 8.5472 156.548 8.8252H154.572C154.572 8.39681 154.704 8.00033 154.969 7.63574C155.233 7.27116 155.607 6.98633 156.09 6.78125C156.573 6.57161 157.115 6.4668 157.717 6.4668C158.628 6.4668 159.351 6.69694 159.884 7.15723C160.422 7.61296 160.69 8.25553 160.69 9.08496V12.291C160.695 12.9928 160.793 13.5238 160.984 13.8838V14H158.988ZM157.354 12.626C157.646 12.626 157.915 12.5622 158.161 12.4346C158.407 12.3024 158.59 12.127 158.708 11.9082V10.6367H157.97C156.981 10.6367 156.454 10.9785 156.391 11.6621L156.384 11.7783C156.384 12.0244 156.47 12.2272 156.644 12.3867C156.817 12.5462 157.054 12.626 157.354 12.626ZM172.106 14H170.124V11.1562H167.67V14H165.694V6.60352H167.67V9.57031H170.124V6.60352H172.106V14ZM177.924 14C177.833 13.8223 177.767 13.6012 177.726 13.3369C177.247 13.8701 176.625 14.1367 175.859 14.1367C175.135 14.1367 174.533 13.9271 174.055 13.5078C173.581 13.0885 173.344 12.5599 173.344 11.9219C173.344 11.138 173.633 10.5365 174.212 10.1172C174.795 9.69792 175.636 9.486 176.734 9.48145H177.644V9.05762C177.644 8.71582 177.555 8.44238 177.377 8.2373C177.204 8.03223 176.928 7.92969 176.55 7.92969C176.217 7.92969 175.955 8.00944 175.764 8.16895C175.577 8.32845 175.483 8.5472 175.483 8.8252H173.508C173.508 8.39681 173.64 8.00033 173.904 7.63574C174.169 7.27116 174.542 6.98633 175.025 6.78125C175.508 6.57161 176.051 6.4668 176.652 6.4668C177.564 6.4668 178.286 6.69694 178.819 7.15723C179.357 7.61296 179.626 8.25553 179.626 9.08496V12.291C179.631 12.9928 179.729 13.5238 179.92 13.8838V14H177.924ZM176.29 12.626C176.582 12.626 176.851 12.5622 177.097 12.4346C177.343 12.3024 177.525 12.127 177.644 11.9082V10.6367H176.905C175.916 10.6367 175.39 10.9785 175.326 11.6621L175.319 11.7783C175.319 12.0244 175.406 12.2272 175.579 12.3867C175.752 12.5462 175.989 12.626 176.29 12.626ZM47.9248 22.6035V30H45.9561V27.4434H44.7051L43.2832 30H41.2803L42.8936 27.1084C42.4515 26.9033 42.1097 26.6253 41.8682 26.2744C41.6312 25.9235 41.5127 25.5247 41.5127 25.0781C41.5127 24.3626 41.7884 23.777 42.3398 23.3213C42.8958 22.861 43.6387 22.6217 44.5684 22.6035H47.9248ZM44.6025 26.0625H45.9561V24.1895H44.6709C44.32 24.1895 44.0352 24.2829 43.8164 24.4697C43.5977 24.652 43.4883 24.8753 43.4883 25.1396C43.4883 25.404 43.5931 25.6227 43.8027 25.7959C44.0124 25.9691 44.279 26.0579 44.6025 26.0625ZM53.4756 24.7842C53.4756 24.5244 53.389 24.3239 53.2158 24.1826C53.0472 24.0368 52.8057 23.9639 52.4912 23.9639C52.1676 23.9639 51.9033 24.0322 51.6982 24.1689C51.4977 24.3011 51.3975 24.4902 51.3975 24.7363H49.4219C49.4219 24.0664 49.6999 23.5218 50.2559 23.1025C50.8118 22.6833 51.5228 22.4736 52.3887 22.4736C53.3411 22.4736 54.0885 22.6605 54.6309 23.0342C55.1777 23.4079 55.4512 23.9388 55.4512 24.627C55.4512 24.9551 55.3509 25.2581 55.1504 25.5361C54.9544 25.8096 54.6764 26.0283 54.3164 26.1924C55.1595 26.4886 55.5811 27.0605 55.5811 27.9082C55.5811 28.5872 55.2894 29.1296 54.7061 29.5352C54.1273 29.9362 53.3548 30.1367 52.3887 30.1367C51.4909 30.1367 50.7526 29.9271 50.1738 29.5078C49.5951 29.0885 49.3057 28.5234 49.3057 27.8125H51.2812C51.2812 28.0632 51.3929 28.266 51.6162 28.4209C51.8395 28.5758 52.1312 28.6533 52.4912 28.6533C52.8421 28.6533 53.1156 28.5713 53.3115 28.4072C53.5075 28.2432 53.6055 28.029 53.6055 27.7646C53.6055 27.4411 53.512 27.2109 53.3252 27.0742C53.1383 26.9329 52.8581 26.8623 52.4844 26.8623H51.4111V25.5771H52.5527C53.168 25.5589 53.4756 25.2946 53.4756 24.7842ZM58.8965 24.7705H60.3115C60.9495 24.7705 61.5101 24.8776 61.9932 25.0918C62.4762 25.306 62.8454 25.6136 63.1006 26.0146C63.3604 26.4111 63.4902 26.8737 63.4902 27.4023C63.4902 28.1816 63.2008 28.8105 62.6221 29.2891C62.0479 29.763 61.264 30 60.2705 30H56.9141V22.6035H58.8965V24.7705ZM66.6348 30H64.6592V22.6035H66.6348V30ZM58.8965 26.3564V28.4209H60.2979C60.6898 28.4209 60.9906 28.3298 61.2002 28.1475C61.4098 27.9652 61.5146 27.7168 61.5146 27.4023C61.5146 27.0833 61.4121 26.8304 61.207 26.6436C61.002 26.4521 60.6989 26.3564 60.2979 26.3564H58.8965ZM71.2764 27.2725H70.4834V30H68.5078V22.6035H70.4834V25.3857H71.1875L72.8008 22.6035H75.2959L72.876 26.124L75.5215 30H72.8896L71.2764 27.2725ZM79.5615 30.1367C78.4769 30.1367 77.5928 29.804 76.9092 29.1387C76.2301 28.4733 75.8906 27.5869 75.8906 26.4795V26.2881C75.8906 25.5452 76.0342 24.8822 76.3213 24.2988C76.6084 23.7109 77.014 23.2598 77.5381 22.9453C78.0667 22.6263 78.6683 22.4668 79.3428 22.4668C80.3545 22.4668 81.1497 22.7858 81.7285 23.4238C82.3118 24.0618 82.6035 24.9665 82.6035 26.1377V26.9443H77.8936C77.9574 27.4274 78.1488 27.8148 78.4678 28.1064C78.7913 28.3981 79.1992 28.5439 79.6914 28.5439C80.4525 28.5439 81.0472 28.2682 81.4756 27.7168L82.4463 28.8037C82.1501 29.223 81.749 29.5511 81.2432 29.7881C80.7373 30.0205 80.1768 30.1367 79.5615 30.1367ZM79.3359 24.0664C78.944 24.0664 78.625 24.1986 78.3789 24.4629C78.1374 24.7272 77.9824 25.1055 77.9141 25.5977H80.6621V25.4404C80.653 25.0029 80.5345 24.6657 80.3066 24.4287C80.0788 24.1872 79.7552 24.0664 79.3359 24.0664ZM90.2939 28.5439C90.6585 28.5439 90.9548 28.4437 91.1826 28.2432C91.4105 28.0426 91.529 27.776 91.5381 27.4434H93.3906C93.3861 27.9447 93.2493 28.4049 92.9805 28.8242C92.7116 29.2389 92.3424 29.5625 91.873 29.7949C91.4082 30.0228 90.8932 30.1367 90.3281 30.1367C89.2708 30.1367 88.4368 29.8018 87.8262 29.1318C87.2155 28.4574 86.9102 27.5277 86.9102 26.3428V26.2129C86.9102 25.0736 87.2132 24.1644 87.8193 23.4854C88.4255 22.8063 89.2572 22.4668 90.3145 22.4668C91.2396 22.4668 91.9801 22.7311 92.5361 23.2598C93.0967 23.7839 93.3815 24.4834 93.3906 25.3584H91.5381C91.529 24.9756 91.4105 24.6657 91.1826 24.4287C90.9548 24.1872 90.654 24.0664 90.2803 24.0664C89.82 24.0664 89.4714 24.235 89.2344 24.5723C89.002 24.9049 88.8857 25.4473 88.8857 26.1992V26.4043C88.8857 27.1654 89.002 27.7122 89.2344 28.0449C89.4668 28.3776 89.82 28.5439 90.2939 28.5439ZM98.3193 27.1973H97L96.5078 30H95.2568L95.749 27.1973H94.1973V26.0215H95.9541L96.2959 24.0801H94.71V22.8906H96.5078L97.0068 20.0469H98.251L97.752 22.8906H99.0781L99.5771 20.0469H100.828L100.329 22.8906H101.826V24.0801H100.117L99.7754 26.0215H101.307V27.1973H99.5703L99.0781 30H97.8271L98.3193 27.1973ZM97.2051 26.0215H98.5244L98.8662 24.0801H97.54L97.2051 26.0215Z" fill="black"/>
</svg>
