<svg width="125" height="47" viewBox="0 0 125 47" fill="none" xmlns="http://www.w3.org/2000/svg">
<path d="M7.11975 10.2641L13.6374 4.29382L19.6078 10.8115" stroke="black" stroke-width="2.5" stroke-linecap="round" stroke-linejoin="round"/>
<path d="M13.6375 4.29382L13.1996 14.2842C12.8973 21.1814 18.2431 27.0173 25.1402 27.3196L26.389 27.3743" stroke="black" stroke-width="2.5" stroke-linecap="round" stroke-linejoin="round"/>
<path d="M35.1357 23.9326H33.9531V28H31.9023V18.0469H33.9531V22.0322H34.8896L37.3232 18.0469H39.8252L36.7559 22.7568L40.1465 28H37.6992L35.1357 23.9326ZM40.3105 24.2334C40.3105 23.4997 40.4518 22.8457 40.7344 22.2715C41.0169 21.6973 41.4225 21.2529 41.9512 20.9385C42.4844 20.624 43.1019 20.4668 43.8037 20.4668C44.8018 20.4668 45.6152 20.7721 46.2441 21.3828C46.8776 21.9935 47.2308 22.8229 47.3037 23.8711L47.3174 24.377C47.3174 25.5117 47.0007 26.4232 46.3672 27.1113C45.7337 27.7949 44.8838 28.1367 43.8174 28.1367C42.751 28.1367 41.8988 27.7949 41.2607 27.1113C40.6273 26.4277 40.3105 25.498 40.3105 24.3223V24.2334ZM42.2861 24.377C42.2861 25.0788 42.4183 25.6165 42.6826 25.9902C42.9469 26.3594 43.3252 26.5439 43.8174 26.5439C44.2959 26.5439 44.6696 26.3617 44.9385 25.9971C45.2074 25.6279 45.3418 25.04 45.3418 24.2334C45.3418 23.5452 45.2074 23.012 44.9385 22.6338C44.6696 22.2555 44.2913 22.0664 43.8037 22.0664C43.3206 22.0664 42.9469 22.2555 42.6826 22.6338C42.4183 23.0075 42.2861 23.5885 42.2861 24.377ZM54.9463 28H52.9639V25.1562H50.5098V28H48.5342V20.6035H50.5098V23.5703H52.9639V20.6035H54.9463V28ZM59.5537 26.5439C59.9183 26.5439 60.2145 26.4437 60.4424 26.2432C60.6702 26.0426 60.7887 25.776 60.7979 25.4434H62.6504C62.6458 25.9447 62.5091 26.4049 62.2402 26.8242C61.9714 27.2389 61.6022 27.5625 61.1328 27.7949C60.668 28.0228 60.153 28.1367 59.5879 28.1367C58.5306 28.1367 57.6966 27.8018 57.0859 27.1318C56.4753 26.4574 56.1699 25.5277 56.1699 24.3428V24.2129C56.1699 23.0736 56.473 22.1644 57.0791 21.4854C57.6852 20.8063 58.5169 20.4668 59.5742 20.4668C60.4993 20.4668 61.2399 20.7311 61.7959 21.2598C62.3564 21.7839 62.6413 22.4834 62.6504 23.3584H60.7979C60.7887 22.9756 60.6702 22.6657 60.4424 22.4287C60.2145 22.1872 59.9137 22.0664 59.54 22.0664C59.0798 22.0664 58.7311 22.235 58.4941 22.5723C58.2617 22.9049 58.1455 23.4473 58.1455 24.1992V24.4043C58.1455 25.1654 58.2617 25.7122 58.4941 26.0449C58.7266 26.3776 59.0798 26.5439 59.5537 26.5439ZM69.917 22.1895H67.5449V28H65.5625V22.1895H63.2314V20.6035H69.917V22.1895ZM77.5732 24.3701C77.5732 25.5094 77.3135 26.4232 76.7939 27.1113C76.279 27.7949 75.5817 28.1367 74.7021 28.1367C73.9548 28.1367 73.3509 27.877 72.8906 27.3574V30.8438H70.915V20.6035H72.7471L72.8154 21.3281C73.2939 20.7539 73.9183 20.4668 74.6885 20.4668C75.5999 20.4668 76.3086 20.804 76.8145 21.4785C77.3203 22.153 77.5732 23.0827 77.5732 24.2676V24.3701ZM75.5977 24.2266C75.5977 23.5384 75.4746 23.0075 75.2285 22.6338C74.987 22.2601 74.6338 22.0732 74.1689 22.0732C73.5492 22.0732 73.123 22.3102 72.8906 22.7842V25.8125C73.1322 26.3001 73.5628 26.5439 74.1826 26.5439C75.126 26.5439 75.5977 25.7715 75.5977 24.2266ZM81.4834 25.2041L82.8506 20.6035H84.9697L81.9961 29.1484L81.832 29.5381C81.39 30.5042 80.6608 30.9873 79.6445 30.9873C79.3574 30.9873 79.0658 30.944 78.7695 30.8574V29.3604L79.0703 29.3672C79.444 29.3672 79.722 29.3102 79.9043 29.1963C80.0911 29.0824 80.237 28.8932 80.3418 28.6289L80.5742 28.0205L77.9834 20.6035H80.1094L81.4834 25.2041ZM88.6475 25.2725H87.8545V28H85.8789V20.6035H87.8545V23.3857H88.5586L90.1719 20.6035H92.667L90.2471 24.124L92.8926 28H90.2607L88.6475 25.2725ZM93.6377 20.6035H95.6133V26.4072H98.0879V20.6035H100.07V26.4209H101.178L101.041 30.1943H99.2021V28H93.6377V20.6035ZM106.626 20.6035H108.602V28H106.626V23.4336L104.151 28H102.169V20.6035H104.151V25.1631L106.626 20.6035ZM116.278 20.6035V28H114.31V25.4434H113.059L111.637 28H109.634L111.247 25.1084C110.805 24.9033 110.463 24.6253 110.222 24.2744C109.985 23.9235 109.866 23.5247 109.866 23.0781C109.866 22.3626 110.142 21.777 110.693 21.3213C111.249 20.861 111.992 20.6217 112.922 20.6035H116.278ZM112.956 24.0625H114.31V22.1895H113.024C112.674 22.1895 112.389 22.2829 112.17 22.4697C111.951 22.652 111.842 22.8753 111.842 23.1396C111.842 23.404 111.947 23.6227 112.156 23.7959C112.366 23.9691 112.632 24.0579 112.956 24.0625ZM34.124 34.7852V36.6035H35.3887V38.0527H34.124V41.7441C34.124 42.0176 34.1764 42.2135 34.2812 42.332C34.3861 42.4505 34.5866 42.5098 34.8828 42.5098C35.1016 42.5098 35.2952 42.4938 35.4639 42.4619V43.959C35.0765 44.0775 34.6777 44.1367 34.2676 44.1367C32.8822 44.1367 32.1758 43.4372 32.1484 42.0381V38.0527H31.0684V36.6035H32.1484V34.7852H34.124ZM40.6455 38.4561C40.3766 38.4196 40.1396 38.4014 39.9346 38.4014C39.1872 38.4014 38.6973 38.6543 38.4648 39.1602V44H36.4893V36.6035H38.3555L38.4102 37.4854C38.8066 36.8063 39.3558 36.4668 40.0576 36.4668C40.2764 36.4668 40.4814 36.4964 40.6729 36.5557L40.6455 38.4561ZM44.4873 41.2041L45.8545 36.6035H47.9736L45 45.1484L44.8359 45.5381C44.3939 46.5042 43.6647 46.9873 42.6484 46.9873C42.3613 46.9873 42.0697 46.944 41.7734 46.8574V45.3604L42.0742 45.3672C42.4479 45.3672 42.7259 45.3102 42.9082 45.1963C43.0951 45.0824 43.2409 44.8932 43.3457 44.6289L43.5781 44.0205L40.9873 36.6035H43.1133L44.4873 41.2041ZM55.3154 42.5439C55.68 42.5439 55.9762 42.4437 56.2041 42.2432C56.432 42.0426 56.5505 41.776 56.5596 41.4434H58.4121C58.4076 41.9447 58.2708 42.4049 58.002 42.8242C57.7331 43.2389 57.3639 43.5625 56.8945 43.7949C56.4297 44.0228 55.9147 44.1367 55.3496 44.1367C54.2923 44.1367 53.4583 43.8018 52.8477 43.1318C52.237 42.4574 51.9316 41.5277 51.9316 40.3428V40.2129C51.9316 39.0736 52.2347 38.1644 52.8408 37.4854C53.4469 36.8063 54.2786 36.4668 55.3359 36.4668C56.2611 36.4668 57.0016 36.7311 57.5576 37.2598C58.1182 37.7839 58.403 38.4834 58.4121 39.3584H56.5596C56.5505 38.9756 56.432 38.6657 56.2041 38.4287C55.9762 38.1872 55.6755 38.0664 55.3018 38.0664C54.8415 38.0664 54.4928 38.235 54.2559 38.5723C54.0234 38.9049 53.9072 39.4473 53.9072 40.1992V40.4043C53.9072 41.1654 54.0234 41.7122 54.2559 42.0449C54.4883 42.3776 54.8415 42.5439 55.3154 42.5439ZM63.8262 44C63.735 43.8223 63.6689 43.6012 63.6279 43.3369C63.1494 43.8701 62.5273 44.1367 61.7617 44.1367C61.0371 44.1367 60.4355 43.9271 59.957 43.5078C59.4831 43.0885 59.2461 42.5599 59.2461 41.9219C59.2461 41.138 59.5355 40.5365 60.1143 40.1172C60.6976 39.6979 61.5384 39.486 62.6367 39.4814H63.5459V39.0576C63.5459 38.7158 63.457 38.4424 63.2793 38.2373C63.1061 38.0322 62.8304 37.9297 62.4521 37.9297C62.1195 37.9297 61.8574 38.0094 61.666 38.1689C61.4792 38.3285 61.3857 38.5472 61.3857 38.8252H59.4102C59.4102 38.3968 59.5423 38.0003 59.8066 37.6357C60.071 37.2712 60.4447 36.9863 60.9277 36.7812C61.4108 36.5716 61.9531 36.4668 62.5547 36.4668C63.4661 36.4668 64.1885 36.6969 64.7217 37.1572C65.2594 37.613 65.5283 38.2555 65.5283 39.085V42.291C65.5329 42.9928 65.6309 43.5238 65.8223 43.8838V44H63.8262ZM62.1924 42.626C62.484 42.626 62.7529 42.5622 62.999 42.4346C63.2451 42.3024 63.4274 42.127 63.5459 41.9082V40.6367H62.8076C61.8187 40.6367 61.2923 40.9785 61.2285 41.6621L61.2217 41.7783C61.2217 42.0244 61.3083 42.2272 61.4814 42.3867C61.6546 42.5462 61.8916 42.626 62.1924 42.626ZM69.4111 34.7852V36.6035H70.6758V38.0527H69.4111V41.7441C69.4111 42.0176 69.4635 42.2135 69.5684 42.332C69.6732 42.4505 69.8737 42.5098 70.1699 42.5098C70.3887 42.5098 70.5824 42.4938 70.751 42.4619V43.959C70.3636 44.0775 69.9648 44.1367 69.5547 44.1367C68.1693 44.1367 67.4629 43.4372 67.4355 42.0381V38.0527H66.3555V36.6035H67.4355V34.7852H69.4111ZM74.8525 42.5439C75.2171 42.5439 75.5133 42.4437 75.7412 42.2432C75.9691 42.0426 76.0876 41.776 76.0967 41.4434H77.9492C77.9447 41.9447 77.8079 42.4049 77.5391 42.8242C77.2702 43.2389 76.901 43.5625 76.4316 43.7949C75.9668 44.0228 75.4518 44.1367 74.8867 44.1367C73.8294 44.1367 72.9954 43.8018 72.3848 43.1318C71.7741 42.4574 71.4688 41.5277 71.4688 40.3428V40.2129C71.4688 39.0736 71.7718 38.1644 72.3779 37.4854C72.984 36.8063 73.8158 36.4668 74.873 36.4668C75.7982 36.4668 76.5387 36.7311 77.0947 37.2598C77.6553 37.7839 77.9401 38.4834 77.9492 39.3584H76.0967C76.0876 38.9756 75.9691 38.6657 75.7412 38.4287C75.5133 38.1872 75.2126 38.0664 74.8389 38.0664C74.3786 38.0664 74.0299 38.235 73.793 38.5723C73.5605 38.9049 73.4443 39.4473 73.4443 40.1992V40.4043C73.4443 41.1654 73.5605 41.7122 73.793 42.0449C74.0254 42.3776 74.3786 42.5439 74.8525 42.5439ZM81.0049 37.4102C81.529 36.7812 82.1875 36.4668 82.9805 36.4668C84.5846 36.4668 85.3981 37.3988 85.4209 39.2627V44H83.4453V39.3174C83.4453 38.8936 83.3542 38.5814 83.1719 38.3809C82.9896 38.1758 82.6865 38.0732 82.2627 38.0732C81.6839 38.0732 81.2646 38.2965 81.0049 38.7432V44H79.0293V33.5H81.0049V37.4102Z" fill="black"/>
</svg>
