<svg width="125" height="55" viewBox="0 0 125 55" fill="none" xmlns="http://www.w3.org/2000/svg">
<path d="M7.11988 10.2641L13.6376 4.29382L19.6079 10.8115" stroke="black" stroke-width="2.5" stroke-linecap="round" stroke-linejoin="round"/>
<path d="M13.6375 4.29382L13.1996 14.2842C12.8973 21.1814 18.2431 27.0173 25.1402 27.3196L26.389 27.3743" stroke="black" stroke-width="2.5" stroke-linecap="round" stroke-linejoin="round"/>
<path d="M39.652 31H38.14L33.618 25.932V31H32.358V21.004H33.618V25.848L38.028 21.004H39.456L35.116 25.862L39.652 31ZM47.3683 27.234C47.3683 28.4753 47.051 29.4367 46.4163 30.118C45.791 30.7993 44.9416 31.14 43.8683 31.14C43.2056 31.14 42.613 30.9907 42.0903 30.692C41.577 30.384 41.171 29.9407 40.8723 29.362C40.5736 28.774 40.4243 28.0647 40.4243 27.234C40.4243 25.9927 40.737 25.036 41.3623 24.364C41.9876 23.692 42.837 23.356 43.9103 23.356C44.5916 23.356 45.189 23.51 45.7023 23.818C46.225 24.1167 46.631 24.5553 46.9203 25.134C47.219 25.7033 47.3683 26.4033 47.3683 27.234ZM41.6983 27.234C41.6983 28.1207 41.871 28.8253 42.2163 29.348C42.571 29.8613 43.131 30.118 43.8963 30.118C44.6523 30.118 45.2076 29.8613 45.5623 29.348C45.917 28.8253 46.0943 28.1207 46.0943 27.234C46.0943 26.3473 45.917 25.652 45.5623 25.148C45.2076 24.644 44.6476 24.392 43.8823 24.392C43.117 24.392 42.5616 24.644 42.2163 25.148C41.871 25.652 41.6983 26.3473 41.6983 27.234ZM50.5529 23.496V26.618H54.6269V23.496H55.8589V31H54.6269V27.654H50.5529V31H49.3209V23.496H50.5529ZM61.2449 31.14C60.5823 31.14 59.9896 31.0047 59.4669 30.734C58.9536 30.4633 58.5476 30.0433 58.2489 29.474C57.9596 28.9047 57.8149 28.1767 57.8149 27.29C57.8149 26.366 57.9689 25.6147 58.2769 25.036C58.5849 24.4573 59.0003 24.0327 59.5229 23.762C60.0549 23.4913 60.6569 23.356 61.3289 23.356C61.7116 23.356 62.0803 23.398 62.4349 23.482C62.7896 23.5567 63.0789 23.65 63.3029 23.762L62.9249 24.784C62.7009 24.7 62.4396 24.6207 62.1409 24.546C61.8423 24.4713 61.5623 24.434 61.3009 24.434C59.8263 24.434 59.0889 25.3813 59.0889 27.276C59.0889 28.1813 59.2663 28.8767 59.6209 29.362C59.9849 29.838 60.5216 30.076 61.2309 30.076C61.6416 30.076 62.0009 30.034 62.3089 29.95C62.6263 29.866 62.9156 29.7633 63.1769 29.642V30.734C62.9249 30.8647 62.6449 30.9627 62.3369 31.028C62.0383 31.1027 61.6743 31.14 61.2449 31.14ZM70.1415 24.532H67.6915V31H66.4735V24.532H64.0515V23.496H70.1415V24.532ZM75.1897 23.356C76.1137 23.356 76.8557 23.678 77.4157 24.322C77.985 24.966 78.2697 25.9367 78.2697 27.234C78.2697 28.5127 77.985 29.4833 77.4157 30.146C76.8557 30.8087 76.109 31.14 75.1757 31.14C74.597 31.14 74.1164 31.0327 73.7337 30.818C73.3604 30.594 73.0664 30.3373 72.8517 30.048H72.7677C72.7864 30.2067 72.805 30.4073 72.8237 30.65C72.8424 30.8927 72.8517 31.1027 72.8517 31.28V34.36H71.6197V23.496H72.6277L72.7957 24.518H72.8517C73.0757 24.1913 73.3697 23.916 73.7337 23.692C74.0977 23.468 74.583 23.356 75.1897 23.356ZM74.9657 24.392C74.2004 24.392 73.659 24.6067 73.3417 25.036C73.0337 25.4653 72.8704 26.1187 72.8517 26.996V27.234C72.8517 28.158 73.001 28.872 73.2997 29.376C73.6077 29.8707 74.1724 30.118 74.9937 30.118C75.451 30.118 75.8244 29.992 76.1137 29.74C76.4124 29.488 76.6317 29.1473 76.7717 28.718C76.921 28.2793 76.9957 27.78 76.9957 27.22C76.9957 26.3613 76.8277 25.6753 76.4917 25.162C76.165 24.6487 75.6564 24.392 74.9657 24.392ZM78.9203 23.496H80.2363L81.8603 27.766C82.0003 28.1393 82.1263 28.4987 82.2383 28.844C82.3503 29.18 82.4343 29.502 82.4903 29.81H82.5463C82.6023 29.5767 82.6909 29.2733 82.8123 28.9C82.9336 28.5173 83.0596 28.1347 83.1903 27.752L84.7163 23.496H86.0463L82.8123 32.036C82.5509 32.7453 82.2103 33.31 81.7903 33.73C81.3796 34.15 80.8103 34.36 80.0823 34.36C79.8583 34.36 79.6623 34.346 79.4943 34.318C79.3263 34.2993 79.1816 34.276 79.0603 34.248V33.268C79.1629 33.2867 79.2843 33.3053 79.4243 33.324C79.5736 33.3427 79.7276 33.352 79.8863 33.352C80.3156 33.352 80.6609 33.2307 80.9223 32.988C81.1929 32.7453 81.4029 32.4233 81.5523 32.022L81.9443 31.028L78.9203 23.496ZM91.671 23.496H93.015L89.809 27.108L93.281 31H91.853L88.465 27.192V31H87.233V23.496H88.465V27.136L91.671 23.496ZM102.049 33.604H100.845V31H94.6431V23.496H95.8751V29.964H99.7531V23.496H100.985V29.978H102.049V33.604ZM104.651 28.074C104.651 28.186 104.646 28.354 104.637 28.578C104.627 28.802 104.613 29.026 104.595 29.25C104.585 29.474 104.576 29.6513 104.567 29.782L108.585 23.496H110.097V31H108.949V26.576C108.949 26.4267 108.949 26.2307 108.949 25.988C108.958 25.7453 108.967 25.5073 108.977 25.274C108.986 25.0313 108.995 24.8493 109.005 24.728L105.015 31H103.489V23.496H104.651V28.074ZM112.947 31H111.519L113.661 27.85C113.372 27.7753 113.092 27.6587 112.821 27.5C112.55 27.332 112.331 27.1033 112.163 26.814C111.995 26.5153 111.911 26.1467 111.911 25.708C111.911 24.9893 112.154 24.4433 112.639 24.07C113.124 23.6873 113.768 23.496 114.571 23.496H117.931V31H116.699V28.018H114.879L112.947 31ZM113.101 25.722C113.101 26.1513 113.26 26.4733 113.577 26.688C113.904 26.8933 114.356 26.996 114.935 26.996H116.699V24.518H114.697C114.128 24.518 113.717 24.63 113.465 24.854C113.222 25.078 113.101 25.3673 113.101 25.722ZM38.7793 44.4238C38.5514 44.4238 38.3053 44.4421 38.041 44.4785C37.7767 44.5059 37.5169 44.5378 37.2617 44.5742C37.0794 44.6016 36.9017 44.6243 36.7285 44.6426C36.5645 44.6608 36.4141 44.6745 36.2773 44.6836C36.2135 44.8841 36.1497 45.0618 36.0859 45.2168C36.0221 45.3717 35.9538 45.5221 35.8809 45.668C35.8079 45.8229 35.7396 45.9824 35.6758 46.1465C35.6211 46.3014 35.5664 46.4701 35.5117 46.6523C35.4206 46.7982 35.3431 46.9349 35.2793 47.0625C35.2246 47.181 35.179 47.3177 35.1426 47.4727C35.0332 47.6094 34.9512 47.7552 34.8965 47.9102C34.8418 48.056 34.8008 48.1836 34.7734 48.293L34.7188 48.457C34.6641 48.5117 34.6322 48.5573 34.623 48.5938C34.6139 48.6211 34.5911 48.6484 34.5547 48.6758C34.5456 48.776 34.5137 48.8763 34.459 48.9766C34.4408 49.0221 34.4271 49.0677 34.418 49.1133C34.4089 49.1497 34.4043 49.1771 34.4043 49.1953C34.4043 49.2865 34.3815 49.3457 34.3359 49.373C34.3451 49.4186 34.3451 49.4688 34.3359 49.5234C34.3268 49.569 34.3177 49.6146 34.3086 49.6602C34.2812 49.7695 34.2721 49.8561 34.2812 49.9199C34.3086 49.9564 34.3314 49.9883 34.3496 50.0156C34.377 50.043 34.3952 50.0794 34.4043 50.125C34.459 50.1615 34.5 50.1842 34.5273 50.1934C34.5638 50.2207 34.6185 50.2526 34.6914 50.2891L34.8145 50.4258C34.86 50.6901 34.819 50.8997 34.6914 51.0547C34.5547 51.2279 34.3223 51.3145 33.9941 51.3145H33.8301C33.7845 51.2689 33.7572 51.2324 33.748 51.2051C33.6751 51.1777 33.6159 51.1549 33.5703 51.1367C33.5247 51.1185 33.4837 51.082 33.4473 51.0273C33.3288 50.9727 33.2331 50.9271 33.1602 50.8906L33.0371 50.8223C33.0371 50.722 33.0371 50.6673 33.0371 50.6582C32.9733 50.5762 32.9232 50.485 32.8867 50.3848C32.8594 50.2845 32.8366 50.1842 32.8184 50.084C32.8001 50.002 32.7773 49.9245 32.75 49.8516C32.7318 49.7786 32.7044 49.7148 32.668 49.6602C32.6497 49.1315 32.6999 48.6849 32.8184 48.3203C32.9368 47.9557 33.0599 47.6048 33.1875 47.2676C33.2604 47.0853 33.3333 46.903 33.4062 46.7207C33.4792 46.5293 33.543 46.3333 33.5977 46.1328L33.7207 45.9961C33.7845 45.8503 33.8346 45.7318 33.8711 45.6406C33.9167 45.5404 33.9622 45.4401 34.0078 45.3398C34.0352 45.276 34.0579 45.2168 34.0762 45.1621C34.1035 45.0983 34.1263 45.0436 34.1445 44.998C34.0898 44.998 34.0397 45.0026 33.9941 45.0117C33.9486 45.0117 33.903 45.0163 33.8574 45.0254C33.8027 45.0345 33.7526 45.0436 33.707 45.0527C33.6615 45.0527 33.6159 45.0527 33.5703 45.0527C33.5065 45.0527 33.4609 45.0482 33.4336 45.0391C33.3333 45.0846 33.224 45.1074 33.1055 45.1074H32.9688C32.9414 45.1074 32.9141 45.1074 32.8867 45.1074C32.8685 45.0983 32.8503 45.0938 32.832 45.0938C32.7409 45.0938 32.668 45.1074 32.6133 45.1348C32.5039 45.1348 32.3991 45.1348 32.2988 45.1348H32.1621C32.1439 45.1348 32.1211 45.1393 32.0938 45.1484C32.0664 45.1484 32.0436 45.1484 32.0254 45.1484C31.9616 45.1484 31.8932 45.1439 31.8203 45.1348C31.7474 45.1165 31.6699 45.0846 31.5879 45.0391C31.4785 44.8932 31.4056 44.8158 31.3691 44.8066L31.2461 44.6426C31.237 44.5879 31.2233 44.5378 31.2051 44.4922C31.1868 44.4375 31.1686 44.3783 31.1504 44.3145C31.1139 44.2233 31.0775 44.1276 31.041 44.0273C31.0137 43.918 31 43.7904 31 43.6445C31.0091 43.5716 31.0273 43.5169 31.0547 43.4805C31.082 43.444 31.1048 43.4121 31.123 43.3848L31.1641 43.1797L31.3418 43.1934H31.7246C32.0163 43.1934 32.3125 43.1842 32.6133 43.166C32.9141 43.1387 33.224 43.1113 33.543 43.084C33.7253 43.0658 33.9076 43.0475 34.0898 43.0293C34.2812 43.0111 34.4772 42.9928 34.6777 42.9746C34.7142 42.8926 34.7507 42.8151 34.7871 42.7422L34.9238 42.6738C35.0879 42.6647 35.2018 42.6875 35.2656 42.7422C35.3385 42.7878 35.3978 42.8333 35.4434 42.8789C35.6439 42.8607 35.8444 42.8424 36.0449 42.8242C36.2546 42.7969 36.4642 42.765 36.6738 42.7285C36.9837 42.6829 37.2936 42.6419 37.6035 42.6055C37.9225 42.569 38.2279 42.5508 38.5195 42.5508C38.6471 42.5508 38.7702 42.5553 38.8887 42.5645C39.0072 42.5736 39.1165 42.5872 39.2168 42.6055L39.3535 42.7012C39.3809 42.7559 39.4173 42.806 39.4629 42.8516C39.5176 42.8971 39.5723 42.9427 39.627 42.9883C39.7363 43.0885 39.8457 43.207 39.9551 43.3438C40.0645 43.4805 40.1055 43.681 40.0781 43.9453C40.0052 44.0547 39.9505 44.1185 39.9141 44.1367L39.791 44.3008L39.6543 44.2871C39.5996 44.2871 39.5495 44.2962 39.5039 44.3145C39.4583 44.3236 39.4128 44.3372 39.3672 44.3555C39.3307 44.3737 39.2943 44.3919 39.2578 44.4102C39.2214 44.4193 39.1803 44.4284 39.1348 44.4375C39.0527 44.4375 38.9844 44.4375 38.9297 44.4375C38.8841 44.4284 38.834 44.4238 38.7793 44.4238ZM39.9141 49.5781C39.8138 49.9427 39.7227 50.2207 39.6406 50.4121C39.5677 50.5944 39.4538 50.7858 39.2988 50.9863C39.1803 50.9681 39.0983 50.9818 39.0527 51.0273C39.0072 51.0729 38.957 51.1139 38.9023 51.1504C38.8203 51.1686 38.7611 51.1686 38.7246 51.1504C38.6882 51.1322 38.6562 51.1094 38.6289 51.082C38.6016 51.0638 38.5651 51.041 38.5195 51.0137C38.4831 50.9954 38.4238 50.9863 38.3418 50.9863C38.3236 50.9134 38.3008 50.8451 38.2734 50.7812C38.2552 50.7174 38.196 50.6947 38.0957 50.7129C38.1139 50.64 38.1185 50.5807 38.1094 50.5352C38.1003 50.4805 38.0866 50.4349 38.0684 50.3984C38.0592 50.3529 38.0501 50.3118 38.041 50.2754C38.0319 50.2298 38.0365 50.1751 38.0547 50.1113C38.0091 50.1113 37.9727 50.0794 37.9453 50.0156C37.918 49.9518 37.8861 49.888 37.8496 49.8242C37.877 49.6602 37.9043 49.5052 37.9316 49.3594C37.959 49.2135 37.9909 49.0768 38.0273 48.9492C38.0729 48.8216 38.1094 48.694 38.1367 48.5664C38.1641 48.4388 38.1504 48.3066 38.0957 48.1699C38.1322 48.1973 38.1595 48.1927 38.1777 48.1562C38.196 48.1107 38.2096 48.056 38.2188 47.9922C38.2279 47.9193 38.2324 47.8509 38.2324 47.7871C38.2324 47.7142 38.2279 47.6549 38.2188 47.6094C38.3099 47.3724 38.3828 47.1309 38.4375 46.8848C38.5013 46.6296 38.556 46.3789 38.6016 46.1328C38.6562 45.8867 38.7109 45.6452 38.7656 45.4082C38.8203 45.1712 38.8932 44.9525 38.9844 44.752C39.0846 44.7337 39.194 44.7474 39.3125 44.793C39.4401 44.8294 39.5176 44.8796 39.5449 44.9434C39.7819 44.7611 39.9915 44.5423 40.1738 44.2871C40.3561 44.0228 40.543 43.7676 40.7344 43.5215C40.9258 43.2754 41.1354 43.0566 41.3633 42.8652C41.6003 42.6738 41.8965 42.5599 42.252 42.5234C42.4342 42.6602 42.6348 42.8014 42.8535 42.9473C43.0814 43.084 43.2682 43.2663 43.4141 43.4941C43.487 43.5306 43.5462 43.5716 43.5918 43.6172C43.6465 43.6536 43.7103 43.6947 43.7832 43.7402V43.9043C43.8926 44.0046 43.9792 44.123 44.043 44.2598C44.1159 44.3874 44.1797 44.5286 44.2344 44.6836C44.2891 44.8294 44.3438 44.9798 44.3984 45.1348C44.4531 45.2806 44.5169 45.4219 44.5898 45.5586C44.5716 45.6042 44.5625 45.6452 44.5625 45.6816C44.5625 45.709 44.5671 45.7409 44.5762 45.7773C44.5944 45.8138 44.6081 45.8503 44.6172 45.8867C44.6263 45.9232 44.6263 45.9733 44.6172 46.0371C44.5898 46.4382 44.4577 46.7617 44.2207 47.0078C43.9928 47.2539 43.7148 47.459 43.3867 47.623C43.0586 47.778 42.7077 47.9102 42.334 48.0195C41.9603 48.1289 41.623 48.2474 41.3223 48.375C41.3223 48.4115 41.3359 48.4297 41.3633 48.4297C41.3997 48.4297 41.4134 48.4525 41.4043 48.498C41.623 48.6348 41.7962 48.7441 41.9238 48.8262C42.0514 48.9082 42.1699 48.9766 42.2793 49.0312C42.3978 49.0859 42.5208 49.1361 42.6484 49.1816C42.7852 49.2181 42.972 49.2637 43.209 49.3184C43.446 49.373 43.6283 49.4186 43.7559 49.4551C43.8926 49.4824 44.0156 49.5098 44.125 49.5371C44.2344 49.5553 44.3438 49.5736 44.4531 49.5918C44.5716 49.6009 44.7357 49.6146 44.9453 49.6328C45.0273 49.7148 45.0957 49.8151 45.1504 49.9336C45.2142 50.043 45.2552 50.1569 45.2734 50.2754C45.2917 50.3848 45.2962 50.4941 45.2871 50.6035C45.278 50.7038 45.2461 50.7858 45.1914 50.8496C45.2005 50.877 45.2188 50.8906 45.2461 50.8906C45.2826 50.8815 45.319 50.8815 45.3555 50.8906C45.3008 50.9271 45.2552 50.9727 45.2188 51.0273C45.1823 51.082 45.1458 51.1367 45.1094 51.1914C45.0729 51.2461 45.0319 51.2917 44.9863 51.3281C44.9408 51.3737 44.877 51.401 44.7949 51.4102C44.5124 51.5195 44.1569 51.5241 43.7285 51.4238C43.3001 51.3327 42.7578 51.1595 42.1016 50.9043C41.7734 50.7767 41.5046 50.6673 41.2949 50.5762C41.0944 50.4759 40.9167 50.3802 40.7617 50.2891C40.6159 50.1888 40.4792 50.084 40.3516 49.9746C40.2331 49.8652 40.0872 49.7331 39.9141 49.5781ZM41.8691 44.8887C41.7689 45.0345 41.6549 45.1667 41.5273 45.2852C41.4089 45.4036 41.2904 45.5267 41.1719 45.6543C41.0625 45.7728 40.9622 45.9095 40.8711 46.0645C40.7799 46.2103 40.7161 46.3835 40.6797 46.584C40.9987 46.5475 41.3314 46.4609 41.6777 46.3242C42.0241 46.1784 42.3522 46.0417 42.6621 45.9141C42.6257 45.6315 42.5254 45.4036 42.3613 45.2305C42.2064 45.0573 42.0423 44.9434 41.8691 44.8887ZM49.3887 47.418C49.3249 47.4727 49.2702 47.541 49.2246 47.623C49.179 47.696 49.1335 47.7734 49.0879 47.8555C49.0423 47.9557 48.9922 48.0514 48.9375 48.1426C48.8828 48.2337 48.8145 48.3158 48.7324 48.3887C48.6868 48.5254 48.6413 48.6348 48.5957 48.7168C48.5501 48.7897 48.4772 48.8763 48.377 48.9766C48.2858 49.3411 48.0716 49.7376 47.7344 50.166C47.7253 50.248 47.6979 50.3301 47.6523 50.4121C47.6159 50.485 47.5749 50.5579 47.5293 50.6309C47.5111 50.6582 47.4928 50.6901 47.4746 50.7266C47.4564 50.7539 47.4427 50.7767 47.4336 50.7949L47.4062 50.9316C47.3607 51.0046 47.3105 51.0684 47.2559 51.123C47.2012 51.1777 47.151 51.2279 47.1055 51.2734C47.0872 51.3008 47.0553 51.3372 47.0098 51.3828L46.8047 51.4648C46.1393 51.3737 45.7337 51.0182 45.5879 50.3984L45.6016 50.2617C45.6198 50.2161 45.6335 50.1706 45.6426 50.125C45.6608 50.0703 45.679 50.0156 45.6973 49.9609C45.7337 49.8333 45.7747 49.7057 45.8203 49.5781C45.875 49.4505 45.9525 49.3366 46.0527 49.2363C46.071 49.1725 46.112 49.0723 46.1758 48.9355C46.2396 48.7897 46.349 48.5755 46.5039 48.293C46.6315 48.0742 46.7318 47.901 46.8047 47.7734C46.8776 47.6458 46.9368 47.5456 46.9824 47.4727C46.8913 47.3268 46.7819 47.1947 46.6543 47.0762C46.5358 46.8483 46.431 46.6296 46.3398 46.4199C46.2578 46.2103 46.194 46.0234 46.1484 45.8594C46.1393 45.7409 46.1257 45.6406 46.1074 45.5586C46.0892 45.4766 46.071 45.39 46.0527 45.2988C46.0254 45.1986 46.0026 45.0983 45.9844 44.998C45.9661 44.8978 45.957 44.793 45.957 44.6836C45.9115 44.6198 45.8841 44.556 45.875 44.4922L45.9023 44.3555C45.9297 44.2917 45.9342 44.2096 45.916 44.1094C45.8978 44 45.875 43.8906 45.8477 43.7812C45.8294 43.6901 45.8066 43.5898 45.7793 43.4805C45.7611 43.3711 45.7565 43.2617 45.7656 43.1523C45.7747 43.043 45.8021 42.9427 45.8477 42.8516C45.9023 42.7513 45.9889 42.6647 46.1074 42.5918L46.3398 42.5781C46.4219 42.6237 46.4993 42.6693 46.5723 42.7148C46.6543 42.7513 46.7318 42.7923 46.8047 42.8379C46.9049 42.8835 47.0007 42.929 47.0918 42.9746C47.1829 43.0202 47.2786 43.0794 47.3789 43.1523L47.4746 43.3438L47.6523 43.4941V43.6445C47.6615 43.681 47.666 43.7311 47.666 43.7949C47.666 43.9134 47.6842 43.9863 47.7207 44.0137L47.7754 44.1777C47.7754 44.3053 47.7891 44.4284 47.8164 44.5469C47.8438 44.6562 47.8711 44.7611 47.8984 44.8613C47.9258 44.9616 47.9531 45.0664 47.9805 45.1758C48.0078 45.2852 48.0124 45.4036 47.9941 45.5312C48.0488 45.5039 48.0944 45.472 48.1309 45.4355C48.1491 45.4173 48.1673 45.4036 48.1855 45.3945C48.2038 45.3854 48.222 45.3717 48.2402 45.3535L49.0469 44.2598L49.0195 44.123L49.3066 43.8496C49.3796 43.7767 49.4479 43.7083 49.5117 43.6445C49.5846 43.5807 49.6439 43.5124 49.6895 43.4395L49.8398 43.3301C50.1315 42.8743 50.5462 42.5918 51.084 42.4824L51.2754 42.4551L51.3301 42.6328C51.3665 42.7331 51.4395 42.8242 51.5488 42.9062C51.6673 42.9883 51.7904 43.0658 51.918 43.1387L52.041 43.2207C52.0866 43.3118 52.1094 43.3802 52.1094 43.4258C52.1094 43.4714 52.1048 43.5124 52.0957 43.5488L52.1504 43.6855C52.0775 43.9043 51.9863 44.0638 51.877 44.1641C51.7767 44.2643 51.6764 44.3555 51.5762 44.4375C51.4941 44.5104 51.4167 44.5788 51.3438 44.6426C51.2799 44.6973 51.2298 44.7702 51.1934 44.8613L51.0977 44.9707C50.9062 45.0801 50.7832 45.2259 50.7285 45.4082L50.6875 45.5723H50.5234C50.5143 45.5723 50.4915 45.5905 50.4551 45.627C50.4277 45.6543 50.3822 45.7318 50.3184 45.8594C50.2546 45.9505 50.209 46.0098 50.1816 46.0371C50.1543 46.0645 50.1315 46.0872 50.1133 46.1055C50.1042 46.1419 50.0905 46.1784 50.0723 46.2148C50.0632 46.2422 50.0495 46.2786 50.0312 46.3242C49.9128 46.4427 49.8398 46.5339 49.8125 46.5977C49.7852 46.6523 49.7533 46.7161 49.7168 46.7891C49.6803 46.862 49.6439 46.9349 49.6074 47.0078C49.5801 47.0716 49.5299 47.14 49.457 47.2129L49.3887 47.418ZM61.4883 51.0273C61.3424 51.0365 61.1602 51.0319 60.9414 51.0137C60.7318 50.9954 60.5358 51.0273 60.3535 51.1094C59.8704 51.0911 59.3783 51.0319 58.877 50.9316C58.3757 50.8314 57.9154 50.7083 57.4961 50.5625C57.4049 50.4622 57.3138 50.3711 57.2227 50.2891C57.1315 50.1979 57.0085 50.1341 56.8535 50.0977C56.6348 49.9245 56.457 49.7148 56.3203 49.4688C56.1836 49.2135 56.0742 48.9447 55.9922 48.6621C55.9102 48.3796 55.8555 48.0924 55.8281 47.8008C55.8008 47.5 55.7917 47.2129 55.8008 46.9395C55.9375 46.5293 56.1289 46.1784 56.375 45.8867C56.6302 45.5859 56.89 45.2897 57.1543 44.998C57.2728 44.9434 57.3594 44.8887 57.4141 44.834C57.4779 44.7702 57.5417 44.7155 57.6055 44.6699C57.6784 44.6152 57.7467 44.5651 57.8105 44.5195C57.8835 44.4648 57.9473 44.401 58.002 44.3281C58.1934 44.2826 58.3574 44.2188 58.4941 44.1367C58.64 44.0456 58.7812 43.9544 58.918 43.8633C59.0547 43.763 59.196 43.6719 59.3418 43.5898C59.4876 43.5078 59.6562 43.444 59.8477 43.3984C59.9206 43.3164 60.0072 43.2526 60.1074 43.207C60.2077 43.1523 60.3079 43.1022 60.4082 43.0566C60.5176 43.002 60.6178 42.9473 60.709 42.8926C60.8092 42.8379 60.8867 42.765 60.9414 42.6738C60.987 42.7467 61.0508 42.7741 61.1328 42.7559C61.2148 42.7285 61.2923 42.7012 61.3652 42.6738C61.4108 42.6647 61.4473 42.6738 61.4746 42.7012C61.5111 42.7285 61.543 42.7559 61.5703 42.7832C61.5977 42.8105 61.6204 42.8288 61.6387 42.8379C61.666 42.8379 61.6888 42.8151 61.707 42.7695C61.7526 42.7695 61.7663 42.7923 61.748 42.8379C61.7298 42.8835 61.7161 42.9154 61.707 42.9336C61.7799 42.9245 61.8392 42.9427 61.8848 42.9883C61.9395 43.0247 62.0215 43.0475 62.1309 43.0566C62.1673 43.1022 62.1764 43.1387 62.1582 43.166C62.14 43.1842 62.1309 43.2207 62.1309 43.2754C62.4043 43.3574 62.5775 43.4896 62.6504 43.6719C62.7233 43.8451 62.7279 44.0273 62.6641 44.2188C62.6003 44.4102 62.4863 44.5879 62.3223 44.752C62.1582 44.916 61.9805 45.0254 61.7891 45.0801C61.3516 45.1986 60.9368 45.3307 60.5449 45.4766C60.1621 45.6133 59.8477 45.8184 59.6016 46.0918C59.3828 46.1556 59.1868 46.2422 59.0137 46.3516C58.8496 46.4518 58.6901 46.5703 58.5352 46.707C58.3893 46.8346 58.248 46.9714 58.1113 47.1172C57.9837 47.2539 57.847 47.3906 57.7012 47.5273C57.7103 47.6549 57.6875 47.7552 57.6328 47.8281C57.5872 47.8919 57.5417 47.9603 57.4961 48.0332C57.5143 48.1699 57.5462 48.293 57.5918 48.4023C57.6374 48.5026 57.6875 48.6029 57.7422 48.7031C58.3438 48.8854 58.9818 48.9993 59.6562 49.0449C60.3398 49.0905 61.0234 49.1178 61.707 49.127C61.7708 49.2181 61.8438 49.3047 61.9258 49.3867C62.0169 49.4596 62.099 49.5417 62.1719 49.6328C62.2448 49.7148 62.304 49.8105 62.3496 49.9199C62.3952 50.0202 62.4043 50.1478 62.377 50.3027C62.2493 50.4395 62.1081 50.5671 61.9531 50.6855C61.7982 50.7949 61.6432 50.9089 61.4883 51.0273ZM70.2246 49.8516C70.1699 50.0065 70.0879 50.166 69.9785 50.3301C69.8783 50.485 69.7552 50.6263 69.6094 50.7539C69.4727 50.8724 69.3177 50.9727 69.1445 51.0547C68.9714 51.1367 68.7891 51.1823 68.5977 51.1914C68.4792 51.1641 68.3971 51.1322 68.3516 51.0957C68.3151 51.0684 68.2741 51.041 68.2285 51.0137C68.2012 50.9954 68.1738 50.9818 68.1465 50.9727C68.1283 50.9544 68.11 50.9408 68.0918 50.9316L67.9277 50.8633L67.9824 50.6855C68.0007 50.6126 67.9961 50.5579 67.9688 50.5215C67.9414 50.4759 67.8867 50.4167 67.8047 50.3438C67.7773 50.3164 67.75 50.2891 67.7227 50.2617C67.6953 50.2344 67.6725 50.207 67.6543 50.1797L67.4219 49.9199L67.791 49.8242C68.0189 49.7604 68.1693 49.6784 68.2422 49.5781C68.3242 49.4779 68.3561 49.3092 68.3379 49.0723C68.1556 49.0358 68.0007 49.0312 67.873 49.0586C67.7546 49.0859 67.6315 49.1178 67.5039 49.1543C67.3398 49.1999 67.1712 49.2409 66.998 49.2773C66.834 49.3047 66.6517 49.3184 66.4512 49.3184C66.3783 49.3184 66.3099 49.3184 66.2461 49.3184C66.1823 49.3092 66.1139 49.3001 66.041 49.291L65.9043 49.2637C65.8861 49.1634 65.8678 49.1087 65.8496 49.0996C65.8314 49.0814 65.8132 49.0632 65.7949 49.0449C65.7493 48.9993 65.6992 48.9401 65.6445 48.8672C65.599 48.7852 65.5898 48.6849 65.6172 48.5664C65.5716 48.4844 65.5443 48.4023 65.5352 48.3203C65.4805 48.4297 65.4395 48.5436 65.4121 48.6621L65.3574 48.7988L65.2207 48.8262C65.2025 48.8353 65.1888 48.8581 65.1797 48.8945C65.1706 48.9219 65.166 48.9447 65.166 48.9629L65.0977 49.1953C65.0794 49.2135 65.0612 49.2318 65.043 49.25C65.0247 49.2591 65.0065 49.2728 64.9883 49.291C64.9701 49.373 64.9473 49.4551 64.9199 49.5371C64.8926 49.6191 64.8652 49.6966 64.8379 49.7695C64.7923 49.888 64.7513 50.0065 64.7148 50.125C64.6875 50.2344 64.6784 50.3438 64.6875 50.4531L64.6328 50.6035C64.5872 50.6582 64.5371 50.7038 64.4824 50.7402C64.4277 50.7676 64.373 50.7949 64.3184 50.8223C64.3001 50.8405 64.2728 50.8587 64.2363 50.877C64.209 50.8861 64.1862 50.8952 64.168 50.9043L64.127 51.0547L63.9629 51.082C63.8626 51.1003 63.7897 51.1139 63.7441 51.123C63.7077 51.1322 63.6621 51.1367 63.6074 51.1367L63.4707 51.123C63.3704 51.041 63.293 50.9772 63.2383 50.9316C63.1836 50.877 63.1198 50.8268 63.0469 50.7812C62.9648 50.6719 62.9193 50.5898 62.9102 50.5352C62.901 50.4805 62.8919 50.4303 62.8828 50.3848C62.8646 50.3301 62.8555 50.2845 62.8555 50.248C62.8464 50.2116 62.8327 50.1842 62.8145 50.166L62.6367 50.002L62.7871 49.8789L62.8008 49.6465C62.9831 49.1816 63.1745 48.735 63.375 48.3066C63.5846 47.8783 63.7988 47.4408 64.0176 46.9941C64.0905 46.8483 64.1589 46.7025 64.2227 46.5566C64.2956 46.4108 64.3685 46.265 64.4414 46.1191C64.4323 46.0918 64.4277 46.0599 64.4277 46.0234C64.4277 45.987 64.4368 45.946 64.4551 45.9004C64.5553 45.7454 64.6374 45.6087 64.7012 45.4902C64.765 45.3626 64.8288 45.235 64.8926 45.1074C64.9655 44.9525 65.0384 44.8021 65.1113 44.6562C65.1934 44.5104 65.2936 44.36 65.4121 44.2051L65.6309 44.1094C65.6582 44.1003 65.6901 44.0911 65.7266 44.082C65.763 44.0638 65.804 44.0547 65.8496 44.0547L66.0547 44.082C66.3099 43.9635 66.5332 43.7995 66.7246 43.5898C66.916 43.3711 67.112 43.1113 67.3125 42.8105L67.4492 42.6191L67.627 42.7285C67.6725 42.7559 67.7363 42.7832 67.8184 42.8105C67.9004 42.8288 67.987 42.8516 68.0781 42.8789C68.2422 42.9154 68.3971 42.9564 68.543 43.002C68.6888 43.0475 68.8073 43.1159 68.8984 43.207C68.9531 43.3529 68.985 43.4622 68.9941 43.5352C69.0033 43.6081 69.0169 43.681 69.0352 43.7539C69.0625 43.9089 69.0853 44.0638 69.1035 44.2188C69.1309 44.3737 69.1491 44.5469 69.1582 44.7383C69.2038 44.8932 69.2402 45.0482 69.2676 45.2031C69.304 45.349 69.3359 45.4993 69.3633 45.6543C69.4089 45.873 69.4544 46.0872 69.5 46.2969C69.5456 46.4974 69.6048 46.6888 69.6777 46.8711C69.7507 46.8711 69.7962 46.8757 69.8145 46.8848C69.86 46.8665 69.9056 46.8529 69.9512 46.8438C70.0059 46.8346 70.0651 46.8255 70.1289 46.8164L70.2793 46.8027L70.334 46.9395C70.3431 46.985 70.3887 47.0306 70.4707 47.0762C70.5892 47.0853 70.6758 47.1126 70.7305 47.1582C70.7852 47.1947 70.8353 47.2357 70.8809 47.2812C70.9173 47.3177 70.9538 47.3451 70.9902 47.3633L71.1953 47.4453L71.0859 47.6504C70.9948 47.8145 70.8626 47.974 70.6895 48.1289C70.5254 48.2747 70.3385 48.3978 70.1289 48.498C70.138 48.5527 70.1426 48.6074 70.1426 48.6621C70.1517 48.7077 70.1654 48.7578 70.1836 48.8125C70.2109 48.9674 70.2337 49.127 70.252 49.291C70.2702 49.4551 70.2702 49.6237 70.252 49.7969L70.2246 49.8516ZM66.2734 47.4863C66.5469 47.4681 66.793 47.4499 67.0117 47.4316C67.2396 47.4043 67.4902 47.3633 67.7637 47.3086C67.6999 47.0352 67.6315 46.7526 67.5586 46.4609C67.4857 46.1602 67.4082 45.8639 67.3262 45.5723L67.2441 45.709C67.0618 45.9004 66.8841 46.1146 66.7109 46.3516C66.5469 46.5885 66.4056 46.8118 66.2871 47.0215C66.2324 47.1035 66.1777 47.1855 66.123 47.2676C66.0684 47.3496 66.0182 47.4316 65.9727 47.5137C66.0273 47.5046 66.0775 47.5 66.123 47.5C66.1777 47.5 66.2279 47.4954 66.2734 47.4863ZM78.209 44.4238C77.9811 44.4238 77.735 44.4421 77.4707 44.4785C77.2064 44.5059 76.9466 44.5378 76.6914 44.5742C76.5091 44.6016 76.3314 44.6243 76.1582 44.6426C75.9941 44.6608 75.8438 44.6745 75.707 44.6836C75.6432 44.8841 75.5794 45.0618 75.5156 45.2168C75.4518 45.3717 75.3835 45.5221 75.3105 45.668C75.2376 45.8229 75.1693 45.9824 75.1055 46.1465C75.0508 46.3014 74.9961 46.4701 74.9414 46.6523C74.8503 46.7982 74.7728 46.9349 74.709 47.0625C74.6543 47.181 74.6087 47.3177 74.5723 47.4727C74.4629 47.6094 74.3809 47.7552 74.3262 47.9102C74.2715 48.056 74.2305 48.1836 74.2031 48.293L74.1484 48.457C74.0938 48.5117 74.0618 48.5573 74.0527 48.5938C74.0436 48.6211 74.0208 48.6484 73.9844 48.6758C73.9753 48.776 73.9434 48.8763 73.8887 48.9766C73.8704 49.0221 73.8568 49.0677 73.8477 49.1133C73.8385 49.1497 73.834 49.1771 73.834 49.1953C73.834 49.2865 73.8112 49.3457 73.7656 49.373C73.7747 49.4186 73.7747 49.4688 73.7656 49.5234C73.7565 49.569 73.7474 49.6146 73.7383 49.6602C73.7109 49.7695 73.7018 49.8561 73.7109 49.9199C73.7383 49.9564 73.7611 49.9883 73.7793 50.0156C73.8066 50.043 73.8249 50.0794 73.834 50.125C73.8887 50.1615 73.9297 50.1842 73.957 50.1934C73.9935 50.2207 74.0482 50.2526 74.1211 50.2891L74.2441 50.4258C74.2897 50.6901 74.2487 50.8997 74.1211 51.0547C73.9844 51.2279 73.752 51.3145 73.4238 51.3145H73.2598C73.2142 51.2689 73.1868 51.2324 73.1777 51.2051C73.1048 51.1777 73.0456 51.1549 73 51.1367C72.9544 51.1185 72.9134 51.082 72.877 51.0273C72.7585 50.9727 72.6628 50.9271 72.5898 50.8906L72.4668 50.8223C72.4668 50.722 72.4668 50.6673 72.4668 50.6582C72.403 50.5762 72.3529 50.485 72.3164 50.3848C72.2891 50.2845 72.2663 50.1842 72.248 50.084C72.2298 50.002 72.207 49.9245 72.1797 49.8516C72.1615 49.7786 72.1341 49.7148 72.0977 49.6602C72.0794 49.1315 72.1296 48.6849 72.248 48.3203C72.3665 47.9557 72.4896 47.6048 72.6172 47.2676C72.6901 47.0853 72.763 46.903 72.8359 46.7207C72.9089 46.5293 72.9727 46.3333 73.0273 46.1328L73.1504 45.9961C73.2142 45.8503 73.2643 45.7318 73.3008 45.6406C73.3464 45.5404 73.3919 45.4401 73.4375 45.3398C73.4648 45.276 73.4876 45.2168 73.5059 45.1621C73.5332 45.0983 73.556 45.0436 73.5742 44.998C73.5195 44.998 73.4694 45.0026 73.4238 45.0117C73.3783 45.0117 73.3327 45.0163 73.2871 45.0254C73.2324 45.0345 73.1823 45.0436 73.1367 45.0527C73.0911 45.0527 73.0456 45.0527 73 45.0527C72.9362 45.0527 72.8906 45.0482 72.8633 45.0391C72.763 45.0846 72.6536 45.1074 72.5352 45.1074H72.3984C72.3711 45.1074 72.3438 45.1074 72.3164 45.1074C72.2982 45.0983 72.2799 45.0938 72.2617 45.0938C72.1706 45.0938 72.0977 45.1074 72.043 45.1348C71.9336 45.1348 71.8288 45.1348 71.7285 45.1348H71.5918C71.5736 45.1348 71.5508 45.1393 71.5234 45.1484C71.4961 45.1484 71.4733 45.1484 71.4551 45.1484C71.3913 45.1484 71.3229 45.1439 71.25 45.1348C71.1771 45.1165 71.0996 45.0846 71.0176 45.0391C70.9082 44.8932 70.8353 44.8158 70.7988 44.8066L70.6758 44.6426C70.6667 44.5879 70.653 44.5378 70.6348 44.4922C70.6165 44.4375 70.5983 44.3783 70.5801 44.3145C70.5436 44.2233 70.5072 44.1276 70.4707 44.0273C70.4434 43.918 70.4297 43.7904 70.4297 43.6445C70.4388 43.5716 70.457 43.5169 70.4844 43.4805C70.5117 43.444 70.5345 43.4121 70.5527 43.3848L70.5938 43.1797L70.7715 43.1934H71.1543C71.446 43.1934 71.7422 43.1842 72.043 43.166C72.3438 43.1387 72.6536 43.1113 72.9727 43.084C73.1549 43.0658 73.3372 43.0475 73.5195 43.0293C73.7109 43.0111 73.9069 42.9928 74.1074 42.9746C74.1439 42.8926 74.1803 42.8151 74.2168 42.7422L74.3535 42.6738C74.5176 42.6647 74.6315 42.6875 74.6953 42.7422C74.7682 42.7878 74.8275 42.8333 74.873 42.8789C75.0736 42.8607 75.2741 42.8424 75.4746 42.8242C75.6842 42.7969 75.8939 42.765 76.1035 42.7285C76.4134 42.6829 76.7233 42.6419 77.0332 42.6055C77.3522 42.569 77.6576 42.5508 77.9492 42.5508C78.0768 42.5508 78.1999 42.5553 78.3184 42.5645C78.4368 42.5736 78.5462 42.5872 78.6465 42.6055L78.7832 42.7012C78.8105 42.7559 78.847 42.806 78.8926 42.8516C78.9473 42.8971 79.002 42.9427 79.0566 42.9883C79.166 43.0885 79.2754 43.207 79.3848 43.3438C79.4941 43.4805 79.5352 43.681 79.5078 43.9453C79.4349 44.0547 79.3802 44.1185 79.3438 44.1367L79.2207 44.3008L79.084 44.2871C79.0293 44.2871 78.9792 44.2962 78.9336 44.3145C78.888 44.3236 78.8424 44.3372 78.7969 44.3555C78.7604 44.3737 78.724 44.3919 78.6875 44.4102C78.651 44.4193 78.61 44.4284 78.5645 44.4375C78.4824 44.4375 78.4141 44.4375 78.3594 44.4375C78.3138 44.4284 78.2637 44.4238 78.209 44.4238ZM82.8301 51.0273C82.6842 51.0365 82.502 51.0319 82.2832 51.0137C82.0736 50.9954 81.8776 51.0273 81.6953 51.1094C81.2122 51.0911 80.7201 51.0319 80.2188 50.9316C79.7174 50.8314 79.2572 50.7083 78.8379 50.5625C78.7467 50.4622 78.6556 50.3711 78.5645 50.2891C78.4733 50.1979 78.3503 50.1341 78.1953 50.0977C77.9766 49.9245 77.7988 49.7148 77.6621 49.4688C77.5254 49.2135 77.416 48.9447 77.334 48.6621C77.252 48.3796 77.1973 48.0924 77.1699 47.8008C77.1426 47.5 77.1335 47.2129 77.1426 46.9395C77.2793 46.5293 77.4707 46.1784 77.7168 45.8867C77.972 45.5859 78.2318 45.2897 78.4961 44.998C78.6146 44.9434 78.7012 44.8887 78.7559 44.834C78.8197 44.7702 78.8835 44.7155 78.9473 44.6699C79.0202 44.6152 79.0885 44.5651 79.1523 44.5195C79.2253 44.4648 79.2891 44.401 79.3438 44.3281C79.5352 44.2826 79.6992 44.2188 79.8359 44.1367C79.9818 44.0456 80.123 43.9544 80.2598 43.8633C80.3965 43.763 80.5378 43.6719 80.6836 43.5898C80.8294 43.5078 80.998 43.444 81.1895 43.3984C81.2624 43.3164 81.349 43.2526 81.4492 43.207C81.5495 43.1523 81.6497 43.1022 81.75 43.0566C81.8594 43.002 81.9596 42.9473 82.0508 42.8926C82.151 42.8379 82.2285 42.765 82.2832 42.6738C82.3288 42.7467 82.3926 42.7741 82.4746 42.7559C82.5566 42.7285 82.6341 42.7012 82.707 42.6738C82.7526 42.6647 82.7891 42.6738 82.8164 42.7012C82.8529 42.7285 82.8848 42.7559 82.9121 42.7832C82.9395 42.8105 82.9622 42.8288 82.9805 42.8379C83.0078 42.8379 83.0306 42.8151 83.0488 42.7695C83.0944 42.7695 83.1081 42.7923 83.0898 42.8379C83.0716 42.8835 83.0579 42.9154 83.0488 42.9336C83.1217 42.9245 83.181 42.9427 83.2266 42.9883C83.2812 43.0247 83.3633 43.0475 83.4727 43.0566C83.5091 43.1022 83.5182 43.1387 83.5 43.166C83.4818 43.1842 83.4727 43.2207 83.4727 43.2754C83.7461 43.3574 83.9193 43.4896 83.9922 43.6719C84.0651 43.8451 84.0697 44.0273 84.0059 44.2188C83.9421 44.4102 83.8281 44.5879 83.6641 44.752C83.5 44.916 83.3223 45.0254 83.1309 45.0801C82.6934 45.1986 82.2786 45.3307 81.8867 45.4766C81.5039 45.6133 81.1895 45.8184 80.9434 46.0918C80.7246 46.1556 80.5286 46.2422 80.3555 46.3516C80.1914 46.4518 80.0319 46.5703 79.877 46.707C79.7311 46.8346 79.5898 46.9714 79.4531 47.1172C79.3255 47.2539 79.1888 47.3906 79.043 47.5273C79.0521 47.6549 79.0293 47.7552 78.9746 47.8281C78.929 47.8919 78.8835 47.9603 78.8379 48.0332C78.8561 48.1699 78.888 48.293 78.9336 48.4023C78.9792 48.5026 79.0293 48.6029 79.084 48.7031C79.6855 48.8854 80.3236 48.9993 80.998 49.0449C81.6816 49.0905 82.3652 49.1178 83.0488 49.127C83.1126 49.2181 83.1855 49.3047 83.2676 49.3867C83.3587 49.4596 83.4408 49.5417 83.5137 49.6328C83.5866 49.7148 83.6458 49.8105 83.6914 49.9199C83.737 50.0202 83.7461 50.1478 83.7188 50.3027C83.5911 50.4395 83.4499 50.5671 83.2949 50.6855C83.14 50.7949 82.985 50.9089 82.8301 51.0273ZM91.334 49.6738C91.3522 49.9108 91.3249 50.1068 91.252 50.2617C91.179 50.4167 91.0788 50.5488 90.9512 50.6582C90.8236 50.7676 90.6777 50.8542 90.5137 50.918C90.3496 50.9818 90.1901 51.041 90.0352 51.0957C89.9622 51.0501 89.8893 51.0046 89.8164 50.959C89.7526 50.9043 89.6751 50.8633 89.584 50.8359C89.4655 50.6172 89.3516 50.4258 89.2422 50.2617C89.1328 50.0885 89.0827 49.8926 89.0918 49.6738C89.0918 49.6647 89.0964 49.6146 89.1055 49.5234C89.1237 49.4323 89.1419 49.332 89.1602 49.2227C89.1875 49.1133 89.2057 49.013 89.2148 48.9219C89.2331 48.8216 89.2422 48.7669 89.2422 48.7578C89.0326 48.776 88.8138 48.8216 88.5859 48.8945C88.3581 48.9674 88.1348 49.054 87.916 49.1543C87.7064 49.2546 87.5059 49.3548 87.3145 49.4551C87.1322 49.5553 86.9818 49.6419 86.8633 49.7148C86.8633 49.7422 86.8451 49.8105 86.8086 49.9199C86.7721 50.0202 86.7266 50.1296 86.6719 50.248C86.6172 50.3574 86.5579 50.4577 86.4941 50.5488C86.4303 50.64 86.3665 50.6855 86.3027 50.6855C86.3118 50.7129 86.3255 50.7402 86.3438 50.7676C86.362 50.7949 86.362 50.8314 86.3438 50.877C86.2161 50.9134 86.1022 50.959 86.002 51.0137C85.9017 51.0775 85.7969 51.1276 85.6875 51.1641C85.5781 51.2096 85.4596 51.2324 85.332 51.2324C85.2044 51.2324 85.054 51.1868 84.8809 51.0957C84.8809 51.041 84.8581 50.9954 84.8125 50.959C84.7669 50.9134 84.7168 50.877 84.6621 50.8496C84.6165 50.8132 84.5755 50.7858 84.5391 50.7676C84.5026 50.7402 84.4844 50.7174 84.4844 50.6992C84.4388 50.7083 84.4206 50.6764 84.4297 50.6035C84.4388 50.5306 84.4753 50.5124 84.5391 50.5488C84.4388 50.4212 84.375 50.3118 84.3477 50.2207C84.3294 50.1204 84.2793 49.9974 84.1973 49.8516C84.2155 49.8333 84.2337 49.8014 84.252 49.7559C84.2611 49.7103 84.2702 49.6693 84.2793 49.6328C84.2884 49.5964 84.3021 49.569 84.3203 49.5508C84.3385 49.5326 84.3613 49.5371 84.3887 49.5645C84.3704 49.4824 84.3704 49.4141 84.3887 49.3594C84.4069 49.3047 84.4251 49.2546 84.4434 49.209C84.4616 49.1634 84.4753 49.1178 84.4844 49.0723C84.4935 49.0267 84.4798 48.9766 84.4434 48.9219C84.5892 48.7214 84.6849 48.5072 84.7305 48.2793C84.776 48.0423 84.8034 47.8281 84.8125 47.6367C84.8763 47.5729 84.931 47.4818 84.9766 47.3633C85.0312 47.2448 85.0723 47.1263 85.0996 47.0078C85.127 46.8802 85.1361 46.7617 85.127 46.6523C85.127 46.5339 85.1133 46.4382 85.0859 46.3652C85.0951 46.3197 85.1452 46.306 85.2363 46.3242C85.291 46.0234 85.3275 45.6862 85.3457 45.3125C85.373 44.9297 85.4141 44.5697 85.4688 44.2324C85.5234 43.8861 85.6146 43.5853 85.7422 43.3301C85.8698 43.0658 86.0749 42.8926 86.3574 42.8105C86.4121 43.002 86.4805 43.1706 86.5625 43.3164C86.6536 43.4622 86.7493 43.6035 86.8496 43.7402C86.959 43.8678 87.0638 44 87.1641 44.1367C87.2734 44.2734 87.3737 44.4284 87.4648 44.6016C87.4557 44.7747 87.4375 44.9753 87.4102 45.2031C87.3828 45.431 87.3464 45.6634 87.3008 45.9004C87.2643 46.1374 87.2233 46.3652 87.1777 46.584C87.1413 46.8027 87.1048 46.9896 87.0684 47.1445C87.0775 47.1901 87.1003 47.2174 87.1367 47.2266C87.1823 47.2357 87.1914 47.2767 87.1641 47.3496C87.3828 47.2949 87.6107 47.2448 87.8477 47.1992C88.0846 47.1536 88.3216 47.1035 88.5586 47.0488C88.7956 46.9941 89.0234 46.9349 89.2422 46.8711C89.4701 46.7982 89.6797 46.7116 89.8711 46.6113C89.9167 46.2559 89.9759 45.9004 90.0488 45.5449C90.1217 45.1895 90.1309 44.8249 90.0762 44.4512C90.1217 44.4147 90.1582 44.3691 90.1855 44.3145C90.2129 44.2598 90.2585 44.2233 90.3223 44.2051C90.2767 44.0319 90.2585 43.8496 90.2676 43.6582C90.2767 43.4668 90.3086 43.2845 90.3633 43.1113C90.4271 42.9382 90.5137 42.7923 90.623 42.6738C90.7415 42.5462 90.8828 42.4642 91.0469 42.4277C91.1471 42.5736 91.2337 42.7331 91.3066 42.9062C91.3796 43.0703 91.4525 43.2389 91.5254 43.4121C91.6074 43.5762 91.6895 43.7357 91.7715 43.8906C91.8626 44.0365 91.9766 44.1641 92.1133 44.2734C92.1406 44.5378 92.1589 44.8112 92.168 45.0938C92.1862 45.3763 92.1999 45.6634 92.209 45.9551C92.1361 46.3014 92.054 46.6387 91.9629 46.9668C91.8809 47.2858 91.8216 47.6276 91.7852 47.9922C91.7214 48.0651 91.6712 48.1471 91.6348 48.2383C91.5983 48.3294 91.5618 48.4251 91.5254 48.5254C91.4889 48.6165 91.4479 48.7077 91.4023 48.7988C91.3568 48.8809 91.3021 48.9538 91.2383 49.0176C91.2747 49.127 91.2793 49.2318 91.252 49.332C91.2337 49.4232 91.2611 49.5371 91.334 49.6738Z" fill="black"/>
</svg>
