<svg width="125" height="47" viewBox="0 0 125 47" fill="none" xmlns="http://www.w3.org/2000/svg">
<path d="M7.11975 10.2641L13.6374 4.29382L19.6078 10.8115" stroke="black" stroke-width="2.5" stroke-linecap="round" stroke-linejoin="round"/>
<path d="M13.6375 4.29382L13.1996 14.2842C12.8973 21.1814 18.2431 27.0173 25.1402 27.3196L26.389 27.3743" stroke="black" stroke-width="2.5" stroke-linecap="round" stroke-linejoin="round"/>
<path d="M35.1357 23.9326H33.9531V28H31.9023V18.0469H33.9531V22.0322H34.8896L37.3232 18.0469H39.8252L36.7559 22.7568L40.1465 28H37.6992L35.1357 23.9326ZM40.3105 24.2334C40.3105 23.4997 40.4518 22.8457 40.7344 22.2715C41.0169 21.6973 41.4225 21.2529 41.9512 20.9385C42.4844 20.624 43.1019 20.4668 43.8037 20.4668C44.8018 20.4668 45.6152 20.7721 46.2441 21.3828C46.8776 21.9935 47.2308 22.8229 47.3037 23.8711L47.3174 24.377C47.3174 25.5117 47.0007 26.4232 46.3672 27.1113C45.7337 27.7949 44.8838 28.1367 43.8174 28.1367C42.751 28.1367 41.8988 27.7949 41.2607 27.1113C40.6273 26.4277 40.3105 25.498 40.3105 24.3223V24.2334ZM42.2861 24.377C42.2861 25.0788 42.4183 25.6165 42.6826 25.9902C42.9469 26.3594 43.3252 26.5439 43.8174 26.5439C44.2959 26.5439 44.6696 26.3617 44.9385 25.9971C45.2074 25.6279 45.3418 25.04 45.3418 24.2334C45.3418 23.5452 45.2074 23.012 44.9385 22.6338C44.6696 22.2555 44.2913 22.0664 43.8037 22.0664C43.3206 22.0664 42.9469 22.2555 42.6826 22.6338C42.4183 23.0075 42.2861 23.5885 42.2861 24.377ZM54.9463 28H52.9639V25.1562H50.5098V28H48.5342V20.6035H50.5098V23.5703H52.9639V20.6035H54.9463V28ZM59.5537 26.5439C59.9183 26.5439 60.2145 26.4437 60.4424 26.2432C60.6702 26.0426 60.7887 25.776 60.7979 25.4434H62.6504C62.6458 25.9447 62.5091 26.4049 62.2402 26.8242C61.9714 27.2389 61.6022 27.5625 61.1328 27.7949C60.668 28.0228 60.153 28.1367 59.5879 28.1367C58.5306 28.1367 57.6966 27.8018 57.0859 27.1318C56.4753 26.4574 56.1699 25.5277 56.1699 24.3428V24.2129C56.1699 23.0736 56.473 22.1644 57.0791 21.4854C57.6852 20.8063 58.5169 20.4668 59.5742 20.4668C60.4993 20.4668 61.2399 20.7311 61.7959 21.2598C62.3564 21.7839 62.6413 22.4834 62.6504 23.3584H60.7979C60.7887 22.9756 60.6702 22.6657 60.4424 22.4287C60.2145 22.1872 59.9137 22.0664 59.54 22.0664C59.0798 22.0664 58.7311 22.235 58.4941 22.5723C58.2617 22.9049 58.1455 23.4473 58.1455 24.1992V24.4043C58.1455 25.1654 58.2617 25.7122 58.4941 26.0449C58.7266 26.3776 59.0798 26.5439 59.5537 26.5439ZM69.917 22.1895H67.5449V28H65.5625V22.1895H63.2314V20.6035H69.917V22.1895ZM77.5732 24.3701C77.5732 25.5094 77.3135 26.4232 76.7939 27.1113C76.279 27.7949 75.5817 28.1367 74.7021 28.1367C73.9548 28.1367 73.3509 27.877 72.8906 27.3574V30.8438H70.915V20.6035H72.7471L72.8154 21.3281C73.2939 20.7539 73.9183 20.4668 74.6885 20.4668C75.5999 20.4668 76.3086 20.804 76.8145 21.4785C77.3203 22.153 77.5732 23.0827 77.5732 24.2676V24.3701ZM75.5977 24.2266C75.5977 23.5384 75.4746 23.0075 75.2285 22.6338C74.987 22.2601 74.6338 22.0732 74.1689 22.0732C73.5492 22.0732 73.123 22.3102 72.8906 22.7842V25.8125C73.1322 26.3001 73.5628 26.5439 74.1826 26.5439C75.126 26.5439 75.5977 25.7715 75.5977 24.2266ZM81.4834 25.2041L82.8506 20.6035H84.9697L81.9961 29.1484L81.832 29.5381C81.39 30.5042 80.6608 30.9873 79.6445 30.9873C79.3574 30.9873 79.0658 30.944 78.7695 30.8574V29.3604L79.0703 29.3672C79.444 29.3672 79.722 29.3102 79.9043 29.1963C80.0911 29.0824 80.237 28.8932 80.3418 28.6289L80.5742 28.0205L77.9834 20.6035H80.1094L81.4834 25.2041ZM88.6475 25.2725H87.8545V28H85.8789V20.6035H87.8545V23.3857H88.5586L90.1719 20.6035H92.667L90.2471 24.124L92.8926 28H90.2607L88.6475 25.2725ZM93.6377 20.6035H95.6133V26.4072H98.0879V20.6035H100.07V26.4209H101.178L101.041 30.1943H99.2021V28H93.6377V20.6035ZM106.626 20.6035H108.602V28H106.626V23.4336L104.151 28H102.169V20.6035H104.151V25.1631L106.626 20.6035ZM116.278 20.6035V28H114.31V25.4434H113.059L111.637 28H109.634L111.247 25.1084C110.805 24.9033 110.463 24.6253 110.222 24.2744C109.985 23.9235 109.866 23.5247 109.866 23.0781C109.866 22.3626 110.142 21.777 110.693 21.3213C111.249 20.861 111.992 20.6217 112.922 20.6035H116.278ZM112.956 24.0625H114.31V22.1895H113.024C112.674 22.1895 112.389 22.2829 112.17 22.4697C111.951 22.652 111.842 22.8753 111.842 23.1396C111.842 23.404 111.947 23.6227 112.156 23.7959C112.366 23.9691 112.632 24.0579 112.956 24.0625ZM34.124 34.7852V36.6035H35.3887V38.0527H34.124V41.7441C34.124 42.0176 34.1764 42.2135 34.2812 42.332C34.3861 42.4505 34.5866 42.5098 34.8828 42.5098C35.1016 42.5098 35.2952 42.4938 35.4639 42.4619V43.959C35.0765 44.0775 34.6777 44.1367 34.2676 44.1367C32.8822 44.1367 32.1758 43.4372 32.1484 42.0381V38.0527H31.0684V36.6035H32.1484V34.7852H34.124ZM40.6455 38.4561C40.3766 38.4196 40.1396 38.4014 39.9346 38.4014C39.1872 38.4014 38.6973 38.6543 38.4648 39.1602V44H36.4893V36.6035H38.3555L38.4102 37.4854C38.8066 36.8063 39.3558 36.4668 40.0576 36.4668C40.2764 36.4668 40.4814 36.4964 40.6729 36.5557L40.6455 38.4561ZM44.4873 41.2041L45.8545 36.6035H47.9736L45 45.1484L44.8359 45.5381C44.3939 46.5042 43.6647 46.9873 42.6484 46.9873C42.3613 46.9873 42.0697 46.944 41.7734 46.8574V45.3604L42.0742 45.3672C42.4479 45.3672 42.7259 45.3102 42.9082 45.1963C43.0951 45.0824 43.2409 44.8932 43.3457 44.6289L43.5781 44.0205L40.9873 36.6035H43.1133L44.4873 41.2041ZM55.6436 44.1367C54.5589 44.1367 53.6748 43.804 52.9912 43.1387C52.3122 42.4733 51.9727 41.5869 51.9727 40.4795V40.2881C51.9727 39.5452 52.1162 38.8822 52.4033 38.2988C52.6904 37.7109 53.096 37.2598 53.6201 36.9453C54.1488 36.6263 54.7503 36.4668 55.4248 36.4668C56.4365 36.4668 57.2318 36.7858 57.8105 37.4238C58.3939 38.0618 58.6855 38.9665 58.6855 40.1377V40.9443H53.9756C54.0394 41.4274 54.2308 41.8148 54.5498 42.1064C54.8734 42.3981 55.2812 42.5439 55.7734 42.5439C56.5345 42.5439 57.1292 42.2682 57.5576 41.7168L58.5283 42.8037C58.2321 43.223 57.8311 43.5511 57.3252 43.7881C56.8193 44.0205 56.2588 44.1367 55.6436 44.1367ZM55.418 38.0664C55.026 38.0664 54.707 38.1986 54.4609 38.4629C54.2194 38.7272 54.0645 39.1055 53.9961 39.5977H56.7441V39.4404C56.735 39.0029 56.6165 38.6657 56.3887 38.4287C56.1608 38.1872 55.8372 38.0664 55.418 38.0664ZM62.6299 38.8115L63.874 36.6035H65.9863L63.8809 40.2266L66.0752 44H63.9561L62.6367 41.6758L61.3242 44H59.1982L61.3926 40.2266L59.2939 36.6035H61.4131L62.6299 38.8115ZM69.876 42.5439C70.2406 42.5439 70.5368 42.4437 70.7646 42.2432C70.9925 42.0426 71.111 41.776 71.1201 41.4434H72.9727C72.9681 41.9447 72.8314 42.4049 72.5625 42.8242C72.2936 43.2389 71.9245 43.5625 71.4551 43.7949C70.9902 44.0228 70.4753 44.1367 69.9102 44.1367C68.8529 44.1367 68.0189 43.8018 67.4082 43.1318C66.7975 42.4574 66.4922 41.5277 66.4922 40.3428V40.2129C66.4922 39.0736 66.7952 38.1644 67.4014 37.4854C68.0075 36.8063 68.8392 36.4668 69.8965 36.4668C70.8216 36.4668 71.5622 36.7311 72.1182 37.2598C72.6787 37.7839 72.9635 38.4834 72.9727 39.3584H71.1201C71.111 38.9756 70.9925 38.6657 70.7646 38.4287C70.5368 38.1872 70.236 38.0664 69.8623 38.0664C69.402 38.0664 69.0534 38.235 68.8164 38.5723C68.584 38.9049 68.4678 39.4473 68.4678 40.1992V40.4043C68.4678 41.1654 68.584 41.7122 68.8164 42.0449C69.0488 42.3776 69.402 42.5439 69.876 42.5439ZM77.5049 44.1367C76.4202 44.1367 75.5361 43.804 74.8525 43.1387C74.1735 42.4733 73.834 41.5869 73.834 40.4795V40.2881C73.834 39.5452 73.9775 38.8822 74.2646 38.2988C74.5518 37.7109 74.9574 37.2598 75.4814 36.9453C76.0101 36.6263 76.6117 36.4668 77.2861 36.4668C78.2979 36.4668 79.0931 36.7858 79.6719 37.4238C80.2552 38.0618 80.5469 38.9665 80.5469 40.1377V40.9443H75.8369C75.9007 41.4274 76.0921 41.8148 76.4111 42.1064C76.7347 42.3981 77.1426 42.5439 77.6348 42.5439C78.3958 42.5439 78.9906 42.2682 79.4189 41.7168L80.3896 42.8037C80.0934 43.223 79.6924 43.5511 79.1865 43.7881C78.6807 44.0205 78.1201 44.1367 77.5049 44.1367ZM77.2793 38.0664C76.8874 38.0664 76.5684 38.1986 76.3223 38.4629C76.0807 38.7272 75.9258 39.1055 75.8574 39.5977H78.6055V39.4404C78.5964 39.0029 78.4779 38.6657 78.25 38.4287C78.0221 38.1872 77.6986 38.0664 77.2793 38.0664ZM88.333 40.3701C88.333 41.5094 88.0732 42.4232 87.5537 43.1113C87.0387 43.7949 86.3415 44.1367 85.4619 44.1367C84.7145 44.1367 84.1107 43.877 83.6504 43.3574V46.8438H81.6748V36.6035H83.5068L83.5752 37.3281C84.0537 36.7539 84.6781 36.4668 85.4482 36.4668C86.3597 36.4668 87.0684 36.804 87.5742 37.4785C88.0801 38.153 88.333 39.0827 88.333 40.2676V40.3701ZM86.3574 40.2266C86.3574 39.5384 86.2344 39.0075 85.9883 38.6338C85.7467 38.2601 85.3936 38.0732 84.9287 38.0732C84.3089 38.0732 83.8828 38.3102 83.6504 38.7842V41.8125C83.8919 42.3001 84.3226 42.5439 84.9424 42.5439C85.8857 42.5439 86.3574 41.7715 86.3574 40.2266ZM91.9287 34.7852V36.6035H93.1934V38.0527H91.9287V41.7441C91.9287 42.0176 91.9811 42.2135 92.0859 42.332C92.1908 42.4505 92.3913 42.5098 92.6875 42.5098C92.9062 42.5098 93.0999 42.4938 93.2686 42.4619V43.959C92.8812 44.0775 92.4824 44.1367 92.0723 44.1367C90.6868 44.1367 89.9805 43.4372 89.9531 42.0381V38.0527H88.873V36.6035H89.9531V34.7852H91.9287Z" fill="black"/>
</svg>
