<svg width="23" height="30" viewBox="0 0 23 30" fill="none" xmlns="http://www.w3.org/2000/svg">
<g clip-path="url(#clip0)">
<path d="M7.1596 23.1913C7.1596 23.1913 6.01526 23.8567 7.97402 24.0819C10.3471 24.3526 11.5598 24.3139 14.1749 23.8189C14.1749 23.8189 14.8625 24.25 15.8226 24.6234C9.96035 27.1359 2.55503 24.4778 7.1596 23.1913" fill="#5382A1"/>
<path d="M6.44324 19.9127C6.44324 19.9127 5.15974 20.8628 7.11997 21.0655C9.65488 21.327 11.6567 21.3484 15.1208 20.6814C15.1208 20.6814 15.5999 21.1671 16.3533 21.4328C9.2654 23.5054 1.37081 21.5962 6.44324 19.9127" fill="#5382A1"/>
<path d="M12.4822 14.351C13.9268 16.014 12.1027 17.5106 12.1027 17.5106C12.1027 17.5106 15.7705 15.6172 14.086 13.2461C12.5129 11.0352 11.3063 9.93642 17.8376 6.14862C17.8376 6.14862 7.58574 8.70903 12.4822 14.3509" fill="#E76F00"/>
<path d="M20.2356 25.6164C20.2356 25.6164 21.0825 26.3141 19.3029 26.8539C15.9192 27.879 5.21922 28.1886 2.24679 26.8948C1.17832 26.43 3.18208 25.7849 3.81234 25.6495C4.46965 25.507 4.84534 25.5336 4.84534 25.5336C3.65705 24.6964 -2.83526 27.1773 1.5476 27.8876C13.5002 29.826 23.3359 27.0149 20.2356 25.6164Z" fill="#5382A1"/>
<path d="M7.70982 16.5156C7.70982 16.5156 2.26725 17.8084 5.78254 18.2777C7.26676 18.4765 10.2256 18.4315 12.9817 18.2006C15.2341 18.0107 17.4958 17.6066 17.4958 17.6066C17.4958 17.6066 16.7016 17.9468 16.127 18.3391C10.6001 19.7927 -0.0769997 19.1165 2.99679 17.6296C5.5963 16.3731 7.70991 16.5156 7.70991 16.5156" fill="#5382A1"/>
<path d="M17.4733 21.973C23.0918 19.0535 20.4941 16.2479 18.6809 16.6259C18.2364 16.7183 18.0383 16.7985 18.0383 16.7985C18.0383 16.7985 18.2033 16.5401 18.5184 16.4282C22.1054 15.1671 24.8641 20.1476 17.3605 22.1202C17.3605 22.1203 17.4474 22.0426 17.4733 21.973" fill="#5382A1"/>
<path d="M14.086 0.0321912C14.086 0.0321912 17.1976 3.14491 11.1349 7.93112C6.27321 11.7706 10.0262 13.9597 11.1329 16.4609C8.295 13.9005 6.21235 11.6465 7.6096 9.54878C9.66026 6.46927 15.3414 4.9763 14.086 0.0321045" fill="#E76F00"/>
<path d="M8.26197 29.8842C13.6549 30.2295 21.9364 29.6927 22.1326 27.1409C22.1326 27.1409 21.7556 28.1083 17.6756 28.8765C13.0726 29.7427 7.39544 29.6416 4.02824 29.0864C4.02833 29.0864 4.71755 29.657 8.26206 29.8842" fill="#5382A1"/>
</g>
<defs>
<clipPath id="clip0">
<rect width="22.2" height="30" fill="white"/>
</clipPath>
</defs>
</svg>
