<svg width="193" height="33" viewBox="0 0 193 33" fill="none" xmlns="http://www.w3.org/2000/svg">
<path d="M7.11978 21.736L13.6375 27.7063L19.6078 21.1886" stroke="black" stroke-width="2.5" stroke-linecap="round" stroke-linejoin="round"/>
<path d="M13.6375 27.7063L13.1996 17.7159C12.8973 10.8188 18.2431 4.98283 25.1402 4.68052L26.389 4.62579" stroke="black" stroke-width="2.5" stroke-linecap="round" stroke-linejoin="round"/>
<path d="M45.6211 8.75L47.4326 4.04688H49.6475L46.168 12.2568L45.8877 12.7969C45.3727 13.6947 44.5843 14.1436 43.5225 14.1436L42.8047 14.1162L42.7842 12.4688C42.8936 12.487 43.0713 12.4961 43.3174 12.4961C43.6045 12.4961 43.8346 12.446 44.0078 12.3457C44.1855 12.2454 44.3337 12.0609 44.4521 11.792L44.7051 11.1426L41.2119 4.04688H43.4199L45.6211 8.75ZM53.2158 12.5439C53.5804 12.5439 53.8766 12.4437 54.1045 12.2432C54.3324 12.0426 54.4508 11.776 54.46 11.4434H56.3125C56.3079 11.9447 56.1712 12.4049 55.9023 12.8242C55.6335 13.2389 55.2643 13.5625 54.7949 13.7949C54.3301 14.0228 53.8151 14.1367 53.25 14.1367C52.1927 14.1367 51.3587 13.8018 50.748 13.1318C50.1374 12.4574 49.832 11.5277 49.832 10.3428V10.2129C49.832 9.07357 50.1351 8.16439 50.7412 7.48535C51.3473 6.80632 52.179 6.4668 53.2363 6.4668C54.1615 6.4668 54.902 6.73112 55.458 7.25977C56.0186 7.78385 56.3034 8.4834 56.3125 9.3584H54.46C54.4508 8.97559 54.3324 8.66569 54.1045 8.42871C53.8766 8.18717 53.5758 8.06641 53.2021 8.06641C52.7419 8.06641 52.3932 8.23503 52.1562 8.57227C51.9238 8.90495 51.8076 9.44727 51.8076 10.1992V10.4043C51.8076 11.1654 51.9238 11.7122 52.1562 12.0449C52.3887 12.3776 52.7419 12.5439 53.2158 12.5439ZM63.873 6.60352V14H61.8975V8.20312H60.1543L60.0312 10.4863C59.9538 11.7031 59.7145 12.5895 59.3135 13.1455C58.9124 13.7015 58.3154 13.9863 57.5225 14H56.8525L56.832 12.3936L57.0781 12.373C57.4336 12.3457 57.6934 12.1361 57.8574 11.7441C58.0215 11.3522 58.124 10.6846 58.165 9.74121L58.3018 6.60352H63.873ZM65.0898 10.2334C65.0898 9.49967 65.2311 8.8457 65.5137 8.27148C65.7962 7.69727 66.2018 7.25293 66.7305 6.93848C67.2637 6.62402 67.8812 6.4668 68.583 6.4668C69.5811 6.4668 70.3945 6.77214 71.0234 7.38281C71.6569 7.99349 72.0101 8.82292 72.083 9.87109L72.0967 10.377C72.0967 11.5117 71.7799 12.4232 71.1465 13.1113C70.513 13.7949 69.6631 14.1367 68.5967 14.1367C67.5303 14.1367 66.6781 13.7949 66.04 13.1113C65.4066 12.4277 65.0898 11.498 65.0898 10.3223V10.2334ZM67.0654 10.377C67.0654 11.0788 67.1976 11.6165 67.4619 11.9902C67.7262 12.3594 68.1045 12.5439 68.5967 12.5439C69.0752 12.5439 69.4489 12.3617 69.7178 11.9971C69.9867 11.6279 70.1211 11.04 70.1211 10.2334C70.1211 9.54525 69.9867 9.01204 69.7178 8.63379C69.4489 8.25553 69.0706 8.06641 68.583 8.06641C68.0999 8.06641 67.7262 8.25553 67.4619 8.63379C67.1976 9.00749 67.0654 9.58854 67.0654 10.377ZM73.4434 14V6.60352H76.5332C77.5404 6.60352 78.3128 6.78125 78.8506 7.13672C79.3883 7.49219 79.6572 8.0026 79.6572 8.66797C79.6572 9.00977 79.5433 9.31738 79.3154 9.59082C79.0921 9.8597 78.764 10.0671 78.3311 10.2129C78.8597 10.3132 79.2744 10.5114 79.5752 10.8076C79.8805 11.0993 80.0332 11.4593 80.0332 11.8877C80.0332 12.5758 79.7734 13.0999 79.2539 13.46C78.7389 13.82 77.9893 14 77.0049 14H73.4434ZM75.4189 10.9307V12.4209H77.0117C77.709 12.4209 78.0576 12.1771 78.0576 11.6895C78.0576 11.1927 77.7249 10.9398 77.0596 10.9307H75.4189ZM75.4189 9.60449H76.6426C77.3353 9.59538 77.6816 9.37207 77.6816 8.93457C77.6816 8.66569 77.5859 8.47428 77.3945 8.36035C77.2077 8.24642 76.9206 8.18945 76.5332 8.18945H75.4189V9.60449ZM85.7002 6.60352H87.6758V14H85.7002V9.43359L83.2256 14H81.2432V6.60352H83.2256V11.1631L85.7002 6.60352ZM95.3525 6.60352V14H93.3838V11.4434H92.1328L90.7109 14H88.708L90.3213 11.1084C89.8792 10.9033 89.5374 10.6253 89.2959 10.2744C89.0589 9.9235 88.9404 9.52474 88.9404 9.07812C88.9404 8.36263 89.2161 7.77702 89.7676 7.32129C90.3236 6.861 91.0664 6.62174 91.9961 6.60352H95.3525ZM92.0303 10.0625H93.3838V8.18945H92.0986C91.7477 8.18945 91.4629 8.28288 91.2441 8.46973C91.0254 8.65202 90.916 8.87533 90.916 9.13965C90.916 9.40397 91.0208 9.62272 91.2305 9.7959C91.4401 9.96908 91.7067 10.0579 92.0303 10.0625ZM100.609 12.4072C101.056 11.9333 101.359 11.4639 101.519 10.999C101.678 10.5342 101.767 9.87565 101.785 9.02344L101.84 6.60352H107.281V12.4072H108.348V16.2217H106.372V14H101.99V16.2217H99.9736V12.4072H100.609ZM102.94 12.4072H105.312V8.2373H103.774L103.761 9.12598C103.72 10.484 103.446 11.5778 102.94 12.4072ZM115.785 6.60352V14H113.81V8.20312H112.066L111.943 10.4863C111.866 11.7031 111.627 12.5895 111.226 13.1455C110.825 13.7015 110.228 13.9863 109.435 14H108.765L108.744 12.3936L108.99 12.373C109.346 12.3457 109.605 12.1361 109.77 11.7441C109.934 11.3522 110.036 10.6846 110.077 9.74121L110.214 6.60352H115.785ZM123.476 6.60352V14H121.507V11.4434H120.256L118.834 14H116.831L118.444 11.1084C118.002 10.9033 117.66 10.6253 117.419 10.2744C117.182 9.9235 117.063 9.52474 117.063 9.07812C117.063 8.36263 117.339 7.77702 117.891 7.32129C118.447 6.861 119.189 6.62174 120.119 6.60352H123.476ZM120.153 10.0625H121.507V8.18945H120.222C119.871 8.18945 119.586 8.28288 119.367 8.46973C119.148 8.65202 119.039 8.87533 119.039 9.13965C119.039 9.40397 119.144 9.62272 119.354 9.7959C119.563 9.96908 119.83 10.0579 120.153 10.0625ZM135.062 14H133.08V8.20312H130.605V14H128.63V6.60352H135.062V14ZM143.231 10.3701C143.231 11.5094 142.972 12.4232 142.452 13.1113C141.937 13.7949 141.24 14.1367 140.36 14.1367C139.613 14.1367 139.009 13.877 138.549 13.3574V16.8438H136.573V6.60352H138.405L138.474 7.32812C138.952 6.75391 139.576 6.4668 140.347 6.4668C141.258 6.4668 141.967 6.80404 142.473 7.47852C142.979 8.15299 143.231 9.08268 143.231 10.2676V10.3701ZM141.256 10.2266C141.256 9.53841 141.133 9.00749 140.887 8.63379C140.645 8.26009 140.292 8.07324 139.827 8.07324C139.207 8.07324 138.781 8.31022 138.549 8.78418V11.8125C138.79 12.3001 139.221 12.5439 139.841 12.5439C140.784 12.5439 141.256 11.7715 141.256 10.2266ZM144.154 10.2334C144.154 9.49967 144.296 8.8457 144.578 8.27148C144.861 7.69727 145.266 7.25293 145.795 6.93848C146.328 6.62402 146.946 6.4668 147.647 6.4668C148.646 6.4668 149.459 6.77214 150.088 7.38281C150.721 7.99349 151.075 8.82292 151.147 9.87109L151.161 10.377C151.161 11.5117 150.844 12.4232 150.211 13.1113C149.577 13.7949 148.728 14.1367 147.661 14.1367C146.595 14.1367 145.743 13.7949 145.104 13.1113C144.471 12.4277 144.154 11.498 144.154 10.3223V10.2334ZM146.13 10.377C146.13 11.0788 146.262 11.6165 146.526 11.9902C146.791 12.3594 147.169 12.5439 147.661 12.5439C148.14 12.5439 148.513 12.3617 148.782 11.9971C149.051 11.6279 149.186 11.04 149.186 10.2334C149.186 9.54525 149.051 9.01204 148.782 8.63379C148.513 8.25553 148.135 8.06641 147.647 8.06641C147.164 8.06641 146.791 8.25553 146.526 8.63379C146.262 9.00749 146.13 9.58854 146.13 10.377ZM152.508 14V6.60352H155.598C156.605 6.60352 157.377 6.78125 157.915 7.13672C158.453 7.49219 158.722 8.0026 158.722 8.66797C158.722 9.00977 158.608 9.31738 158.38 9.59082C158.157 9.8597 157.828 10.0671 157.396 10.2129C157.924 10.3132 158.339 10.5114 158.64 10.8076C158.945 11.0993 159.098 11.4593 159.098 11.8877C159.098 12.5758 158.838 13.0999 158.318 13.46C157.803 13.82 157.054 14 156.069 14H152.508ZM154.483 10.9307V12.4209H156.076C156.773 12.4209 157.122 12.1771 157.122 11.6895C157.122 11.1927 156.789 10.9398 156.124 10.9307H154.483ZM154.483 9.60449H155.707C156.4 9.59538 156.746 9.37207 156.746 8.93457C156.746 8.66569 156.65 8.47428 156.459 8.36035C156.272 8.24642 155.985 8.18945 155.598 8.18945H154.483V9.60449ZM163.712 14.1367C162.627 14.1367 161.743 13.804 161.06 13.1387C160.381 12.4733 160.041 11.5869 160.041 10.4795V10.2881C160.041 9.54525 160.185 8.88216 160.472 8.29883C160.759 7.71094 161.164 7.25977 161.688 6.94531C162.217 6.6263 162.819 6.4668 163.493 6.4668C164.505 6.4668 165.3 6.78581 165.879 7.42383C166.462 8.06185 166.754 8.96647 166.754 10.1377V10.9443H162.044C162.108 11.4274 162.299 11.8148 162.618 12.1064C162.942 12.3981 163.35 12.5439 163.842 12.5439C164.603 12.5439 165.198 12.2682 165.626 11.7168L166.597 12.8037C166.3 13.223 165.899 13.5511 165.394 13.7881C164.888 14.0205 164.327 14.1367 163.712 14.1367ZM163.486 8.06641C163.094 8.06641 162.775 8.19857 162.529 8.46289C162.288 8.72721 162.133 9.10547 162.064 9.59766H164.812V9.44043C164.803 9.00293 164.685 8.66569 164.457 8.42871C164.229 8.18717 163.906 8.06641 163.486 8.06641ZM174.54 10.3701C174.54 11.5094 174.28 12.4232 173.761 13.1113C173.246 13.7949 172.549 14.1367 171.669 14.1367C170.922 14.1367 170.318 13.877 169.857 13.3574V16.8438H167.882V6.60352H169.714L169.782 7.32812C170.261 6.75391 170.885 6.4668 171.655 6.4668C172.567 6.4668 173.275 6.80404 173.781 7.47852C174.287 8.15299 174.54 9.08268 174.54 10.2676V10.3701ZM172.564 10.2266C172.564 9.53841 172.441 9.00749 172.195 8.63379C171.954 8.26009 171.601 8.07324 171.136 8.07324C170.516 8.07324 170.09 8.31022 169.857 8.78418V11.8125C170.099 12.3001 170.53 12.5439 171.149 12.5439C172.093 12.5439 172.564 11.7715 172.564 10.2266ZM178.669 11.2725H177.876V14H175.9V6.60352H177.876V9.38574H178.58L180.193 6.60352H182.688L180.269 10.124L182.914 14H180.282L178.669 11.2725ZM188.116 6.60352H190.092V14H188.116V9.43359L185.642 14H183.659V6.60352H185.642V11.1631L188.116 6.60352ZM48.1914 30H46.209V24.2031H43.7344V30H41.7588V22.6035H48.1914V30ZM53.9883 30C53.8971 29.8223 53.8311 29.6012 53.79 29.3369C53.3115 29.8701 52.6895 30.1367 51.9238 30.1367C51.1992 30.1367 50.5977 29.9271 50.1191 29.5078C49.6452 29.0885 49.4082 28.5599 49.4082 27.9219C49.4082 27.138 49.6976 26.5365 50.2764 26.1172C50.8597 25.6979 51.7005 25.486 52.7988 25.4814H53.708V25.0576C53.708 24.7158 53.6191 24.4424 53.4414 24.2373C53.2682 24.0322 52.9925 23.9297 52.6143 23.9297C52.2816 23.9297 52.0195 24.0094 51.8281 24.1689C51.6413 24.3285 51.5479 24.5472 51.5479 24.8252H49.5723C49.5723 24.3968 49.7044 24.0003 49.9688 23.6357C50.2331 23.2712 50.6068 22.9863 51.0898 22.7812C51.5729 22.5716 52.1152 22.4668 52.7168 22.4668C53.6283 22.4668 54.3506 22.6969 54.8838 23.1572C55.4215 23.613 55.6904 24.2555 55.6904 25.085V28.291C55.695 28.9928 55.793 29.5238 55.9844 29.8838V30H53.9883ZM52.3545 28.626C52.6462 28.626 52.915 28.5622 53.1611 28.4346C53.4072 28.3024 53.5895 28.127 53.708 27.9082V26.6367H52.9697C51.9808 26.6367 51.4544 26.9785 51.3906 27.6621L51.3838 27.7783C51.3838 28.0244 51.4704 28.2272 51.6436 28.3867C51.8167 28.5462 52.0537 28.626 52.3545 28.626ZM63.8662 26.3701C63.8662 27.5094 63.6064 28.4232 63.0869 29.1113C62.5719 29.7949 61.8747 30.1367 60.9951 30.1367C60.2477 30.1367 59.6439 29.877 59.1836 29.3574V32.8438H57.208V22.6035H59.04L59.1084 23.3281C59.5869 22.7539 60.2113 22.4668 60.9814 22.4668C61.8929 22.4668 62.6016 22.804 63.1074 23.4785C63.6133 24.153 63.8662 25.0827 63.8662 26.2676V26.3701ZM61.8906 26.2266C61.8906 25.5384 61.7676 25.0075 61.5215 24.6338C61.2799 24.2601 60.9268 24.0732 60.4619 24.0732C59.8421 24.0732 59.416 24.3102 59.1836 24.7842V27.8125C59.4251 28.3001 59.8558 28.5439 60.4756 28.5439C61.4189 28.5439 61.8906 27.7715 61.8906 26.2266ZM64.7891 26.2334C64.7891 25.4997 64.9303 24.8457 65.2129 24.2715C65.4954 23.6973 65.901 23.2529 66.4297 22.9385C66.9629 22.624 67.5804 22.4668 68.2822 22.4668C69.2803 22.4668 70.0938 22.7721 70.7227 23.3828C71.3561 23.9935 71.7093 24.8229 71.7822 25.8711L71.7959 26.377C71.7959 27.5117 71.4792 28.4232 70.8457 29.1113C70.2122 29.7949 69.3623 30.1367 68.2959 30.1367C67.2295 30.1367 66.3773 29.7949 65.7393 29.1113C65.1058 28.4277 64.7891 27.498 64.7891 26.3223V26.2334ZM66.7646 26.377C66.7646 27.0788 66.8968 27.6165 67.1611 27.9902C67.4255 28.3594 67.8037 28.5439 68.2959 28.5439C68.7744 28.5439 69.1481 28.3617 69.417 27.9971C69.6859 27.6279 69.8203 27.04 69.8203 26.2334C69.8203 25.5452 69.6859 25.012 69.417 24.6338C69.1481 24.2555 68.7699 24.0664 68.2822 24.0664C67.7992 24.0664 67.4255 24.2555 67.1611 24.6338C66.8968 25.0075 66.7646 25.5885 66.7646 26.377ZM79.3359 22.6035V30H77.3604V24.2031H75.6172L75.4941 26.4863C75.4167 27.7031 75.1774 28.5895 74.7764 29.1455C74.3753 29.7015 73.7783 29.9863 72.9854 30H72.3154L72.2949 28.3936L72.541 28.373C72.8965 28.3457 73.1562 28.1361 73.3203 27.7441C73.4844 27.3522 73.5869 26.6846 73.6279 25.7412L73.7646 22.6035H79.3359ZM87.0264 22.6035V30H85.0576V27.4434H83.8066L82.3848 30H80.3818L81.9951 27.1084C81.5531 26.9033 81.2113 26.6253 80.9697 26.2744C80.7327 25.9235 80.6143 25.5247 80.6143 25.0781C80.6143 24.3626 80.89 23.777 81.4414 23.3213C81.9974 22.861 82.7402 22.6217 83.6699 22.6035H87.0264ZM83.7041 26.0625H85.0576V24.1895H83.7725C83.4215 24.1895 83.1367 24.2829 82.918 24.4697C82.6992 24.652 82.5898 24.8753 82.5898 25.1396C82.5898 25.404 82.6947 25.6227 82.9043 25.7959C83.1139 25.9691 83.3805 26.0579 83.7041 26.0625Z" fill="black"/>
</svg>
