<svg width="31" height="30" viewBox="0 0 31 30" fill="none" xmlns="http://www.w3.org/2000/svg">
<g clip-path="url(#clip0)">
<path d="M14.9325 0.00848389C7.30519 0.00848389 7.78143 3.31613 7.78143 3.31613L7.7899 6.74295H15.0685V7.77178H4.89896C4.89896 7.77178 0.0182495 7.21825 0.0182495 14.9141C0.0182495 22.6102 4.27825 22.3373 4.27825 22.3373H6.8206V18.766C6.8206 18.766 6.68354 14.506 11.0126 14.506H18.2317C18.2317 14.506 22.2875 14.5715 22.2875 10.5861V3.99648C22.2875 3.99648 22.9035 0.00848389 14.9325 0.00848389ZM10.9191 2.31295C11.0911 2.3128 11.2614 2.34656 11.4203 2.41231C11.5793 2.47806 11.7237 2.57451 11.8453 2.69613C11.9669 2.81775 12.0634 2.96216 12.1291 3.12109C12.1949 3.28003 12.2286 3.45037 12.2285 3.62237C12.2286 3.79436 12.1949 3.9647 12.1291 4.12364C12.0634 4.28257 11.9669 4.42698 11.8453 4.54861C11.7237 4.67023 11.5793 4.76667 11.4203 4.83242C11.2614 4.89817 11.0911 4.93193 10.9191 4.93178C10.7471 4.93193 10.5767 4.89817 10.4178 4.83242C10.2589 4.76667 10.1145 4.67023 9.99283 4.54861C9.87121 4.42698 9.77477 4.28257 9.70902 4.12364C9.64327 3.9647 9.60951 3.79436 9.60966 3.62237C9.60951 3.45037 9.64327 3.28003 9.70902 3.12109C9.77477 2.96216 9.87121 2.81775 9.99283 2.69613C10.1145 2.57451 10.2589 2.47806 10.4178 2.41231C10.5767 2.34656 10.7471 2.3128 10.9191 2.31295V2.31295Z" fill="url(#paint0_linear)"/>
<path d="M15.149 29.8972C22.7763 29.8972 22.3001 26.5895 22.3001 26.5895L22.2916 23.1628H15.0129V22.134H25.1825C25.1825 22.134 30.0632 22.6875 30.0632 14.9914C30.0632 7.29539 25.8032 7.56834 25.8032 7.56834H23.2608V11.1395C23.2608 11.1395 23.3979 15.3995 19.0688 15.3995H11.8498C11.8498 15.3995 7.79387 15.334 7.79387 19.3195V25.9093C7.79387 25.9093 7.17799 29.8972 15.1489 29.8972H15.149ZM19.1625 27.5929C18.9905 27.5931 18.8201 27.5593 18.6612 27.4936C18.5023 27.4278 18.3578 27.3314 18.2362 27.2098C18.1146 27.0881 18.0182 26.9437 17.9524 26.7848C17.8867 26.6258 17.8529 26.4555 17.853 26.2835C17.8529 26.1115 17.8866 25.9412 17.9524 25.7822C18.0181 25.6233 18.1146 25.4788 18.2362 25.3572C18.3578 25.2356 18.5022 25.1391 18.6612 25.0734C18.8201 25.0076 18.9905 24.9738 19.1625 24.974C19.3345 24.9738 19.5048 25.0076 19.6637 25.0733C19.8227 25.1391 19.9671 25.2355 20.0887 25.3572C20.2103 25.4788 20.3068 25.6232 20.3725 25.7821C20.4383 25.9411 20.472 26.1114 20.4719 26.2834C20.472 26.4554 20.4383 26.6257 20.3725 26.7847C20.3068 26.9436 20.2103 27.088 20.0887 27.2096C19.9671 27.3313 19.8227 27.4277 19.6637 27.4934C19.5048 27.5592 19.3345 27.593 19.1625 27.5928V27.5929Z" fill="url(#paint1_linear)"/>
</g>
<defs>
<linearGradient id="paint0_linear" x1="2.90556" y1="2.69679" x2="17.7949" y2="17.4376" gradientUnits="userSpaceOnUse">
<stop stop-color="#387EB8"/>
<stop offset="1" stop-color="#366994"/>
</linearGradient>
<linearGradient id="paint1_linear" x1="12.0446" y1="12.1624" x2="28.0341" y2="27.2778" gradientUnits="userSpaceOnUse">
<stop stop-color="#FFE052"/>
<stop offset="1" stop-color="#FFC331"/>
</linearGradient>
<clipPath id="clip0">
<rect width="30.12" height="30" fill="white"/>
</clipPath>
</defs>
</svg>
