<svg width="30" height="30" viewBox="0 0 30 30" fill="none" xmlns="http://www.w3.org/2000/svg">
<path d="M7.5 11.875C8.49456 11.875 9.44839 11.4799 10.1517 10.7767C10.8549 10.0734 11.25 9.11956 11.25 8.125C11.25 7.13044 10.8549 6.17661 10.1517 5.47335C9.44839 4.77009 8.49456 4.375 7.5 4.375C6.50544 4.375 5.55161 4.77009 4.84835 5.47335C4.14509 6.17661 3.75 7.13044 3.75 8.125C3.75 9.11956 4.14509 10.0734 4.84835 10.7767C5.55161 11.4799 6.50544 11.875 7.5 11.875V11.875ZM20 19.375H26.25V25.625H20V19.375Z" fill="#239E28" stroke="#239E28" stroke-width="2.5" stroke-linejoin="round"/>
<path d="M2.5 15.625H27.5" stroke="#239E28" stroke-width="2.5" stroke-linecap="round" stroke-linejoin="round"/>
</svg>
