<svg width="86" height="29" viewBox="0 0 86 29" fill="none" xmlns="http://www.w3.org/2000/svg">
<path d="M4.13574 5.93262H2.95312V10H0.902344V0.046875H2.95312V4.03223H3.88965L6.32324 0.046875H8.8252L5.75586 4.75684L9.14648 10H6.69922L4.13574 5.93262ZM9.31055 6.2334C9.31055 5.49967 9.45182 4.8457 9.73438 4.27148C10.0169 3.69727 10.4225 3.25293 10.9512 2.93848C11.4844 2.62402 12.1019 2.4668 12.8037 2.4668C13.8018 2.4668 14.6152 2.77214 15.2441 3.38281C15.8776 3.99349 16.2308 4.82292 16.3037 5.87109L16.3174 6.37695C16.3174 7.51172 16.0007 8.42318 15.3672 9.11133C14.7337 9.79492 13.8838 10.1367 12.8174 10.1367C11.751 10.1367 10.8988 9.79492 10.2607 9.11133C9.62728 8.42773 9.31055 7.49805 9.31055 6.32227V6.2334ZM11.2861 6.37695C11.2861 7.07878 11.4183 7.61654 11.6826 7.99023C11.9469 8.35938 12.3252 8.54395 12.8174 8.54395C13.2959 8.54395 13.6696 8.36165 13.9385 7.99707C14.2074 7.62793 14.3418 7.04004 14.3418 6.2334C14.3418 5.54525 14.2074 5.01204 13.9385 4.63379C13.6696 4.25553 13.2913 4.06641 12.8037 4.06641C12.3206 4.06641 11.9469 4.25553 11.6826 4.63379C11.4183 5.00749 11.2861 5.58854 11.2861 6.37695ZM23.9463 10H21.9639V7.15625H19.5098V10H17.5342V2.60352H19.5098V5.57031H21.9639V2.60352H23.9463V10ZM28.5537 8.54395C28.9183 8.54395 29.2145 8.44368 29.4424 8.24316C29.6702 8.04264 29.7887 7.77604 29.7979 7.44336H31.6504C31.6458 7.94466 31.5091 8.40495 31.2402 8.82422C30.9714 9.23893 30.6022 9.5625 30.1328 9.79492C29.668 10.0228 29.153 10.1367 28.5879 10.1367C27.5306 10.1367 26.6966 9.80176 26.0859 9.13184C25.4753 8.45736 25.1699 7.52767 25.1699 6.34277V6.21289C25.1699 5.07357 25.473 4.16439 26.0791 3.48535C26.6852 2.80632 27.5169 2.4668 28.5742 2.4668C29.4993 2.4668 30.2399 2.73112 30.7959 3.25977C31.3564 3.78385 31.6413 4.4834 31.6504 5.3584H29.7979C29.7887 4.97559 29.6702 4.66569 29.4424 4.42871C29.2145 4.18717 28.9137 4.06641 28.54 4.06641C28.0798 4.06641 27.7311 4.23503 27.4941 4.57227C27.2617 4.90495 27.1455 5.44727 27.1455 6.19922V6.4043C27.1455 7.16536 27.2617 7.71224 27.4941 8.04492C27.7266 8.3776 28.0798 8.54395 28.5537 8.54395ZM38.917 4.18945H36.5449V10H34.5625V4.18945H32.2314V2.60352H38.917V4.18945ZM46.5732 6.37012C46.5732 7.50944 46.3135 8.42318 45.7939 9.11133C45.279 9.79492 44.5817 10.1367 43.7021 10.1367C42.9548 10.1367 42.3509 9.87695 41.8906 9.35742V12.8438H39.915V2.60352H41.7471L41.8154 3.32812C42.2939 2.75391 42.9183 2.4668 43.6885 2.4668C44.5999 2.4668 45.3086 2.80404 45.8145 3.47852C46.3203 4.15299 46.5732 5.08268 46.5732 6.26758V6.37012ZM44.5977 6.22656C44.5977 5.53841 44.4746 5.00749 44.2285 4.63379C43.987 4.26009 43.6338 4.07324 43.1689 4.07324C42.5492 4.07324 42.123 4.31022 41.8906 4.78418V7.8125C42.1322 8.30013 42.5628 8.54395 43.1826 8.54395C44.126 8.54395 44.5977 7.77148 44.5977 6.22656ZM50.4834 7.2041L51.8506 2.60352H53.9697L50.9961 11.1484L50.832 11.5381C50.39 12.5042 49.6608 12.9873 48.6445 12.9873C48.3574 12.9873 48.0658 12.944 47.7695 12.8574V11.3604L48.0703 11.3672C48.444 11.3672 48.722 11.3102 48.9043 11.1963C49.0911 11.0824 49.237 10.8932 49.3418 10.6289L49.5742 10.0205L46.9834 2.60352H49.1094L50.4834 7.2041ZM57.6475 7.27246H56.8545V10H54.8789V2.60352H56.8545V5.38574H57.5586L59.1719 2.60352H61.667L59.2471 6.12402L61.8926 10H59.2607L57.6475 7.27246ZM62.6377 2.60352H64.6133V8.40723H67.0879V2.60352H69.0703V8.4209H70.1777L70.041 12.1943H68.2021V10H62.6377V2.60352ZM75.626 2.60352H77.6016V10H75.626V5.43359L73.1514 10H71.1689V2.60352H73.1514V7.16309L75.626 2.60352ZM85.2783 2.60352V10H83.3096V7.44336H82.0586L80.6367 10H78.6338L80.2471 7.1084C79.805 6.90332 79.4632 6.62533 79.2217 6.27441C78.9847 5.9235 78.8662 5.52474 78.8662 5.07812C78.8662 4.36263 79.1419 3.77702 79.6934 3.32129C80.2493 2.861 80.9922 2.62174 81.9219 2.60352H85.2783ZM81.9561 6.0625H83.3096V4.18945H82.0244C81.6735 4.18945 81.3887 4.28288 81.1699 4.46973C80.9512 4.65202 80.8418 4.87533 80.8418 5.13965C80.8418 5.40397 80.9466 5.62272 81.1562 5.7959C81.3659 5.96908 81.6325 6.05794 81.9561 6.0625ZM3.12402 16.7852V18.6035H4.38867V20.0527H3.12402V23.7441C3.12402 24.0176 3.17643 24.2135 3.28125 24.332C3.38607 24.4505 3.58659 24.5098 3.88281 24.5098C4.10156 24.5098 4.29525 24.4938 4.46387 24.4619V25.959C4.0765 26.0775 3.67773 26.1367 3.26758 26.1367C1.88216 26.1367 1.17578 25.4372 1.14844 24.0381V20.0527H0.0683594V18.6035H1.14844V16.7852H3.12402ZM9.64551 20.4561C9.37663 20.4196 9.13965 20.4014 8.93457 20.4014C8.18717 20.4014 7.69727 20.6543 7.46484 21.1602V26H5.48926V18.6035H7.35547L7.41016 19.4854C7.80664 18.8063 8.35579 18.4668 9.05762 18.4668C9.27637 18.4668 9.48145 18.4964 9.67285 18.5557L9.64551 20.4561ZM13.4873 23.2041L14.8545 18.6035H16.9736L14 27.1484L13.8359 27.5381C13.3939 28.5042 12.6647 28.9873 11.6484 28.9873C11.3613 28.9873 11.0697 28.944 10.7734 28.8574V27.3604L11.0742 27.3672C11.4479 27.3672 11.7259 27.3102 11.9082 27.1963C12.0951 27.0824 12.2409 26.8932 12.3457 26.6289L12.5781 26.0205L9.9873 18.6035H12.1133L13.4873 23.2041ZM24.3154 24.5439C24.68 24.5439 24.9762 24.4437 25.2041 24.2432C25.432 24.0426 25.5505 23.776 25.5596 23.4434H27.4121C27.4076 23.9447 27.2708 24.4049 27.002 24.8242C26.7331 25.2389 26.3639 25.5625 25.8945 25.7949C25.4297 26.0228 24.9147 26.1367 24.3496 26.1367C23.2923 26.1367 22.4583 25.8018 21.8477 25.1318C21.237 24.4574 20.9316 23.5277 20.9316 22.3428V22.2129C20.9316 21.0736 21.2347 20.1644 21.8408 19.4854C22.4469 18.8063 23.2786 18.4668 24.3359 18.4668C25.2611 18.4668 26.0016 18.7311 26.5576 19.2598C27.1182 19.7839 27.403 20.4834 27.4121 21.3584H25.5596C25.5505 20.9756 25.432 20.6657 25.2041 20.4287C24.9762 20.1872 24.6755 20.0664 24.3018 20.0664C23.8415 20.0664 23.4928 20.235 23.2559 20.5723C23.0234 20.9049 22.9072 21.4473 22.9072 22.1992V22.4043C22.9072 23.1654 23.0234 23.7122 23.2559 24.0449C23.4883 24.3776 23.8415 24.5439 24.3154 24.5439ZM32.8262 26C32.735 25.8223 32.6689 25.6012 32.6279 25.3369C32.1494 25.8701 31.5273 26.1367 30.7617 26.1367C30.0371 26.1367 29.4355 25.9271 28.957 25.5078C28.4831 25.0885 28.2461 24.5599 28.2461 23.9219C28.2461 23.138 28.5355 22.5365 29.1143 22.1172C29.6976 21.6979 30.5384 21.486 31.6367 21.4814H32.5459V21.0576C32.5459 20.7158 32.457 20.4424 32.2793 20.2373C32.1061 20.0322 31.8304 19.9297 31.4521 19.9297C31.1195 19.9297 30.8574 20.0094 30.666 20.1689C30.4792 20.3285 30.3857 20.5472 30.3857 20.8252H28.4102C28.4102 20.3968 28.5423 20.0003 28.8066 19.6357C29.071 19.2712 29.4447 18.9863 29.9277 18.7812C30.4108 18.5716 30.9531 18.4668 31.5547 18.4668C32.4661 18.4668 33.1885 18.6969 33.7217 19.1572C34.2594 19.613 34.5283 20.2555 34.5283 21.085V24.291C34.5329 24.9928 34.6309 25.5238 34.8223 25.8838V26H32.8262ZM31.1924 24.626C31.484 24.626 31.7529 24.5622 31.999 24.4346C32.2451 24.3024 32.4274 24.127 32.5459 23.9082V22.6367H31.8076C30.8187 22.6367 30.2923 22.9785 30.2285 23.6621L30.2217 23.7783C30.2217 24.0244 30.3083 24.2272 30.4814 24.3867C30.6546 24.5462 30.8916 24.626 31.1924 24.626ZM38.4111 16.7852V18.6035H39.6758V20.0527H38.4111V23.7441C38.4111 24.0176 38.4635 24.2135 38.5684 24.332C38.6732 24.4505 38.8737 24.5098 39.1699 24.5098C39.3887 24.5098 39.5824 24.4938 39.751 24.4619V25.959C39.3636 26.0775 38.9648 26.1367 38.5547 26.1367C37.1693 26.1367 36.4629 25.4372 36.4355 24.0381V20.0527H35.3555V18.6035H36.4355V16.7852H38.4111ZM43.8525 24.5439C44.2171 24.5439 44.5133 24.4437 44.7412 24.2432C44.9691 24.0426 45.0876 23.776 45.0967 23.4434H46.9492C46.9447 23.9447 46.8079 24.4049 46.5391 24.8242C46.2702 25.2389 45.901 25.5625 45.4316 25.7949C44.9668 26.0228 44.4518 26.1367 43.8867 26.1367C42.8294 26.1367 41.9954 25.8018 41.3848 25.1318C40.7741 24.4574 40.4688 23.5277 40.4688 22.3428V22.2129C40.4688 21.0736 40.7718 20.1644 41.3779 19.4854C41.984 18.8063 42.8158 18.4668 43.873 18.4668C44.7982 18.4668 45.5387 18.7311 46.0947 19.2598C46.6553 19.7839 46.9401 20.4834 46.9492 21.3584H45.0967C45.0876 20.9756 44.9691 20.6657 44.7412 20.4287C44.5133 20.1872 44.2126 20.0664 43.8389 20.0664C43.3786 20.0664 43.0299 20.235 42.793 20.5723C42.5605 20.9049 42.4443 21.4473 42.4443 22.1992V22.4043C42.4443 23.1654 42.5605 23.7122 42.793 24.0449C43.0254 24.3776 43.3786 24.5439 43.8525 24.5439ZM50.0049 19.4102C50.529 18.7812 51.1875 18.4668 51.9805 18.4668C53.5846 18.4668 54.3981 19.3988 54.4209 21.2627V26H52.4453V21.3174C52.4453 20.8936 52.3542 20.5814 52.1719 20.3809C51.9896 20.1758 51.6865 20.0732 51.2627 20.0732C50.6839 20.0732 50.2646 20.2965 50.0049 20.7432V26H48.0293V15.5H50.0049V19.4102Z" fill="black"/>
</svg>
